<?xml version="1.0" encoding="UTF-8" standalone="no"?>
<!DOCTYPE svg PUBLIC "-//W3C//DTD SVG 1.1//EN"
 "http://www.w3.org/Graphics/SVG/1.1/DTD/svg11.dtd">
<!-- Generated by graphviz version 14.0.0 (20250921.2048)
 -->
<!-- Title: BioFilterLib/src/BioFilterLib.h Pages: 1 -->
<svg width="313pt" height="152pt"
 viewBox="0.00 0.00 313.00 152.00" xmlns="http://www.w3.org/2000/svg" xmlns:xlink="http://www.w3.org/1999/xlink">
<g id="graph0" class="graph" transform="scale(1 1) rotate(0) translate(4 148)">
<title>BioFilterLib/src/BioFilterLib.h</title>
<!-- Node1 -->
<g id="Node000001" class="node">
<title>Node1</title>
<g id="a_Node000001"><a xlink:title=" ">
<polygon fill="#999999" stroke="#666666" points="210.88,-144 90.62,-144 90.62,-112 210.88,-112 210.88,-144"/>
<text xml:space="preserve" text-anchor="start" x="98.62" y="-130.5" font-family="Helvetica,sans-Serif" font-size="10.00">BioFilterLib/src/BioFilter</text>
<text xml:space="preserve" text-anchor="middle" x="150.75" y="-118.5" font-family="Helvetica,sans-Serif" font-size="10.00">Lib.h</text>
</a>
</g>
</g>
<!-- Node2 -->
<g id="Node000002" class="node">
<title>Node2</title>
<g id="a_Node000002"><a xlink:href="_f_i_r_filter_8h.html" target="_top" xlink:title="Filtro FIR optimizado para bioseñales usando CMSIS&#45;DSP.">
<polygon fill="white" stroke="#666666" points="89.5,-76 0,-76 0,-56 89.5,-56 89.5,-76"/>
<text xml:space="preserve" text-anchor="middle" x="44.75" y="-62.5" font-family="Helvetica,sans-Serif" font-size="10.00">filters/FIRFilter.h</text>
</a>
</g>
</g>
<!-- Node1&#45;&gt;Node2 -->
<g id="edge1_Node000001_Node000002" class="edge">
<title>Node1&#45;&gt;Node2</title>
<g id="a_edge1_Node000001_Node000002"><a xlink:title=" ">
<path fill="none" stroke="#63b8ff" d="M123.45,-111.55C107.35,-102.43 87.07,-90.96 71.13,-81.93"/>
<polygon fill="#63b8ff" stroke="#63b8ff" points="73.11,-79.03 62.69,-77.15 69.67,-85.13 73.11,-79.03"/>
</a>
</g>
</g>
<!-- Node5 -->
<g id="Node000005" class="node">
<title>Node5</title>
<g id="a_Node000005"><a xlink:href="_i_i_r_filter_8h.html" target="_top" xlink:title="Filtro IIR de tipo Biquad en cascada, optimizado para bioseñales usando CMSIS&#45;DSP.">
<polygon fill="white" stroke="#666666" points="194,-76 107.5,-76 107.5,-56 194,-56 194,-76"/>
<text xml:space="preserve" text-anchor="middle" x="150.75" y="-62.5" font-family="Helvetica,sans-Serif" font-size="10.00">filters/IIRFilter.h</text>
</a>
</g>
</g>
<!-- Node1&#45;&gt;Node5 -->
<g id="edge4_Node000001_Node000005" class="edge">
<title>Node1&#45;&gt;Node5</title>
<g id="a_edge4_Node000001_Node000005"><a xlink:title=" ">
<path fill="none" stroke="#63b8ff" d="M150.75,-111.55C150.75,-104.34 150.75,-95.66 150.75,-87.88"/>
<polygon fill="#63b8ff" stroke="#63b8ff" points="154.25,-87.92 150.75,-77.92 147.25,-87.92 154.25,-87.92"/>
</a>
</g>
</g>
<!-- Node6 -->
<g id="Node000006" class="node">
<title>Node6</title>
<g id="a_Node000006"><a xlink:href="_l_m_s_filter_8h.html" target="_top" xlink:title="Filtro LMS (Least Mean Squares) adaptativo para bioseñales usando CMSIS&#45;DSP.">
<polygon fill="white" stroke="#666666" points="305.38,-76 212.12,-76 212.12,-56 305.38,-56 305.38,-76"/>
<text xml:space="preserve" text-anchor="middle" x="258.75" y="-62.5" font-family="Helvetica,sans-Serif" font-size="10.00">filters/LMSFilter.h</text>
</a>
</g>
</g>
<!-- Node1&#45;&gt;Node6 -->
<g id="edge7_Node000001_Node000006" class="edge">
<title>Node1&#45;&gt;Node6</title>
<g id="a_edge7_Node000001_Node000006"><a xlink:title=" ">
<path fill="none" stroke="#63b8ff" d="M178.56,-111.55C194.97,-102.43 215.63,-90.96 231.87,-81.93"/>
<polygon fill="#63b8ff" stroke="#63b8ff" points="233.45,-85.06 240.49,-77.14 230.05,-78.94 233.45,-85.06"/>
</a>
</g>
</g>
<!-- Node3 -->
<g id="Node000003" class="node">
<title>Node3</title>
<g id="a_Node000003"><a xlink:title=" ">
<polygon fill="#e0e0e0" stroke="#999999" points="138.38,-20 81.12,-20 81.12,0 138.38,0 138.38,-20"/>
<text xml:space="preserve" text-anchor="middle" x="109.75" y="-6.5" font-family="Helvetica,sans-Serif" font-size="10.00">Arduino.h</text>
</a>
</g>
</g>
<!-- Node2&#45;&gt;Node3 -->
<g id="edge2_Node000002_Node000003" class="edge">
<title>Node2&#45;&gt;Node3</title>
<g id="a_edge2_Node000002_Node000003"><a xlink:title=" ">
<path fill="none" stroke="#63b8ff" d="M56.07,-55.59C65.39,-47.85 78.83,-36.69 89.93,-27.47"/>
<polygon fill="#63b8ff" stroke="#63b8ff" points="91.94,-30.35 97.39,-21.27 87.46,-24.96 91.94,-30.35"/>
</a>
</g>
</g>
<!-- Node4 -->
<g id="Node000004" class="node">
<title>Node4</title>
<g id="a_Node000004"><a xlink:title=" ">
<polygon fill="#e0e0e0" stroke="#999999" points="224.62,-20 156.88,-20 156.88,0 224.62,0 224.62,-20"/>
<text xml:space="preserve" text-anchor="middle" x="190.75" y="-6.5" font-family="Helvetica,sans-Serif" font-size="10.00">arm_math.h</text>
</a>
</g>
</g>
<!-- Node2&#45;&gt;Node4 -->
<g id="edge3_Node000002_Node000004" class="edge">
<title>Node2&#45;&gt;Node4</title>
<g id="a_edge3_Node000002_Node000004"><a xlink:title=" ">
<path fill="none" stroke="#63b8ff" d="M70.18,-55.59C93.49,-46.97 128.25,-34.12 154.47,-24.42"/>
<polygon fill="#63b8ff" stroke="#63b8ff" points="155.54,-27.76 163.7,-21 153.11,-21.19 155.54,-27.76"/>
</a>
</g>
</g>
<!-- Node5&#45;&gt;Node3 -->
<g id="edge5_Node000005_Node000003" class="edge">
<title>Node5&#45;&gt;Node3</title>
<g id="a_edge5_Node000005_Node000003"><a xlink:title=" ">
<path fill="none" stroke="#63b8ff" d="M143.61,-55.59C138.14,-48.39 130.43,-38.23 123.74,-29.43"/>
<polygon fill="#63b8ff" stroke="#63b8ff" points="126.56,-27.35 117.73,-21.5 120.98,-31.58 126.56,-27.35"/>
</a>
</g>
</g>
<!-- Node5&#45;&gt;Node4 -->
<g id="edge6_Node000005_Node000004" class="edge">
<title>Node5&#45;&gt;Node4</title>
<g id="a_edge6_Node000005_Node000004"><a xlink:title=" ">
<path fill="none" stroke="#63b8ff" d="M157.72,-55.59C163.05,-48.39 170.58,-38.23 177.1,-29.43"/>
<polygon fill="#63b8ff" stroke="#63b8ff" points="179.82,-31.63 182.96,-21.51 174.2,-27.47 179.82,-31.63"/>
</a>
</g>
</g>
<!-- Node6&#45;&gt;Node3 -->
<g id="edge8_Node000006_Node000003" class="edge">
<title>Node6&#45;&gt;Node3</title>
<g id="a_edge8_Node000006_Node000003"><a xlink:title=" ">
<path fill="none" stroke="#63b8ff" d="M232.8,-55.59C208.91,-46.94 173.22,-34 146.42,-24.29"/>
<polygon fill="#63b8ff" stroke="#63b8ff" points="147.92,-21.11 137.33,-21 145.54,-27.69 147.92,-21.11"/>
</a>
</g>
</g>
<!-- Node6&#45;&gt;Node4 -->
<g id="edge9_Node000006_Node000004" class="edge">
<title>Node6&#45;&gt;Node4</title>
<g id="a_edge9_Node000006_Node000004"><a xlink:title=" ">
<path fill="none" stroke="#63b8ff" d="M246.91,-55.59C237.06,-47.77 222.82,-36.46 211.14,-27.19"/>
<polygon fill="#63b8ff" stroke="#63b8ff" points="213.65,-24.72 203.64,-21.24 209.3,-30.2 213.65,-24.72"/>
</a>
</g>
</g>
</g>
</svg>
