<?xml version="1.0" encoding="UTF-8" standalone="no"?>
<!DOCTYPE svg PUBLIC "-//W3C//DTD SVG 1.1//EN"
 "http://www.w3.org/Graphics/SVG/1.1/DTD/svg11.dtd">
<!-- Generated by graphviz version 14.0.0 (20250921.2048)
 -->
<!-- Title: BioFilterLib/src/filters/IIRFilter.cpp Pages: 1 -->
<svg width="152pt" height="152pt"
 viewBox="0.00 0.00 152.00 152.00" xmlns="http://www.w3.org/2000/svg" xmlns:xlink="http://www.w3.org/1999/xlink">
<g id="graph0" class="graph" transform="scale(1 1) rotate(0) translate(4 148)">
<title>BioFilterLib/src/filters/IIRFilter.cpp</title>
<!-- Node1 -->
<g id="Node000001" class="node">
<title>Node1</title>
<g id="a_Node000001"><a xlink:title="Implementación del filtro IIR Biquad optimizado para bioseñales.">
<polygon fill="#999999" stroke="#666666" points="122.75,-144 14.5,-144 14.5,-112 122.75,-112 122.75,-144"/>
<text xml:space="preserve" text-anchor="start" x="22.5" y="-130.5" font-family="Helvetica,sans-Serif" font-size="10.00">BioFilterLib/src/filters</text>
<text xml:space="preserve" text-anchor="middle" x="68.62" y="-118.5" font-family="Helvetica,sans-Serif" font-size="10.00">/IIRFilter.cpp</text>
</a>
</g>
</g>
<!-- Node2 -->
<g id="Node000002" class="node">
<title>Node2</title>
<g id="a_Node000002"><a xlink:href="_i_i_r_filter_8h.html" target="_top" xlink:title="Filtro IIR de tipo Biquad en cascada, optimizado para bioseñales usando CMSIS&#45;DSP.">
<polygon fill="white" stroke="#666666" points="98.38,-76 38.88,-76 38.88,-56 98.38,-56 98.38,-76"/>
<text xml:space="preserve" text-anchor="middle" x="68.62" y="-62.5" font-family="Helvetica,sans-Serif" font-size="10.00">IIRFilter.h</text>
</a>
</g>
</g>
<!-- Node1&#45;&gt;Node2 -->
<g id="edge1_Node000001_Node000002" class="edge">
<title>Node1&#45;&gt;Node2</title>
<g id="a_edge1_Node000001_Node000002"><a xlink:title=" ">
<path fill="none" stroke="#63b8ff" d="M68.62,-111.55C68.62,-104.34 68.62,-95.66 68.62,-87.88"/>
<polygon fill="#63b8ff" stroke="#63b8ff" points="72.13,-87.92 68.63,-77.92 65.13,-87.92 72.13,-87.92"/>
</a>
</g>
</g>
<!-- Node3 -->
<g id="Node000003" class="node">
<title>Node3</title>
<g id="a_Node000003"><a xlink:title=" ">
<polygon fill="#e0e0e0" stroke="#999999" points="57.25,-20 0,-20 0,0 57.25,0 57.25,-20"/>
<text xml:space="preserve" text-anchor="middle" x="28.62" y="-6.5" font-family="Helvetica,sans-Serif" font-size="10.00">Arduino.h</text>
</a>
</g>
</g>
<!-- Node2&#45;&gt;Node3 -->
<g id="edge2_Node000002_Node000003" class="edge">
<title>Node2&#45;&gt;Node3</title>
<g id="a_edge2_Node000002_Node000003"><a xlink:title=" ">
<path fill="none" stroke="#63b8ff" d="M61.66,-55.59C56.32,-48.39 48.8,-38.23 42.28,-29.43"/>
<polygon fill="#63b8ff" stroke="#63b8ff" points="45.18,-27.47 36.41,-21.51 39.55,-31.63 45.18,-27.47"/>
</a>
</g>
</g>
<!-- Node4 -->
<g id="Node000004" class="node">
<title>Node4</title>
<g id="a_Node000004"><a xlink:title=" ">
<polygon fill="#e0e0e0" stroke="#999999" points="143.5,-20 75.75,-20 75.75,0 143.5,0 143.5,-20"/>
<text xml:space="preserve" text-anchor="middle" x="109.62" y="-6.5" font-family="Helvetica,sans-Serif" font-size="10.00">arm_math.h</text>
</a>
</g>
</g>
<!-- Node2&#45;&gt;Node4 -->
<g id="edge3_Node000002_Node000004" class="edge">
<title>Node2&#45;&gt;Node4</title>
<g id="a_edge3_Node000002_Node000004"><a xlink:title=" ">
<path fill="none" stroke="#63b8ff" d="M75.77,-55.59C81.23,-48.39 88.95,-38.23 95.63,-29.43"/>
<polygon fill="#63b8ff" stroke="#63b8ff" points="98.39,-31.58 101.65,-21.5 92.82,-27.35 98.39,-31.58"/>
</a>
</g>
</g>
</g>
</svg>
