<?xml version="1.0" encoding="UTF-8" standalone="no"?>
<!DOCTYPE svg PUBLIC "-//W3C//DTD SVG 1.1//EN"
 "http://www.w3.org/Graphics/SVG/1.1/DTD/svg11.dtd">
<!-- Generated by graphviz version 14.0.0 (20250921.2048)
 -->
<!-- Title: BioFilterLib/src/filters/LMSFilter.h Pages: 1 -->
<svg width="152pt" height="96pt"
 viewBox="0.00 0.00 152.00 96.00" xmlns="http://www.w3.org/2000/svg" xmlns:xlink="http://www.w3.org/1999/xlink">
<g id="graph0" class="graph" transform="scale(1 1) rotate(0) translate(4 92)">
<title>BioFilterLib/src/filters/LMSFilter.h</title>
<!-- Node1 -->
<g id="Node000001" class="node">
<title>Node1</title>
<g id="a_Node000001"><a xlink:title="Filtro LMS (Least Mean Squares) adaptativo para bioseñales usando CMSIS&#45;DSP.">
<polygon fill="#999999" stroke="#666666" points="122.75,-88 14.5,-88 14.5,-56 122.75,-56 122.75,-88"/>
<text xml:space="preserve" text-anchor="start" x="22.5" y="-74.5" font-family="Helvetica,sans-Serif" font-size="10.00">BioFilterLib/src/filters</text>
<text xml:space="preserve" text-anchor="middle" x="68.62" y="-62.5" font-family="Helvetica,sans-Serif" font-size="10.00">/LMSFilter.h</text>
</a>
</g>
</g>
<!-- Node2 -->
<g id="Node000002" class="node">
<title>Node2</title>
<g id="a_Node000002"><a xlink:title=" ">
<polygon fill="#e0e0e0" stroke="#999999" points="57.25,-20 0,-20 0,0 57.25,0 57.25,-20"/>
<text xml:space="preserve" text-anchor="middle" x="28.62" y="-6.5" font-family="Helvetica,sans-Serif" font-size="10.00">Arduino.h</text>
</a>
</g>
</g>
<!-- Node1&#45;&gt;Node2 -->
<g id="edge1_Node000001_Node000002" class="edge">
<title>Node1&#45;&gt;Node2</title>
<g id="a_edge1_Node000001_Node000002"><a xlink:title=" ">
<path fill="none" stroke="#63b8ff" d="M58.32,-55.55C53.12,-47.74 46.75,-38.19 41.25,-29.94"/>
<polygon fill="#63b8ff" stroke="#63b8ff" points="44.2,-28.05 35.74,-21.67 38.37,-31.93 44.2,-28.05"/>
</a>
</g>
</g>
<!-- Node3 -->
<g id="Node000003" class="node">
<title>Node3</title>
<g id="a_Node000003"><a xlink:title=" ">
<polygon fill="#e0e0e0" stroke="#999999" points="143.5,-20 75.75,-20 75.75,0 143.5,0 143.5,-20"/>
<text xml:space="preserve" text-anchor="middle" x="109.62" y="-6.5" font-family="Helvetica,sans-Serif" font-size="10.00">arm_math.h</text>
</a>
</g>
</g>
<!-- Node1&#45;&gt;Node3 -->
<g id="edge2_Node000001_Node000003" class="edge">
<title>Node1&#45;&gt;Node3</title>
<g id="a_edge2_Node000001_Node000003"><a xlink:title=" ">
<path fill="none" stroke="#63b8ff" d="M79.18,-55.55C84.58,-47.65 91.19,-37.97 96.87,-29.66"/>
<polygon fill="#63b8ff" stroke="#63b8ff" points="99.59,-31.89 102.34,-21.66 93.81,-27.94 99.59,-31.89"/>
</a>
</g>
</g>
</g>
</svg>
