<?xml version="1.0" encoding="UTF-8" standalone="no"?>
<!DOCTYPE svg PUBLIC "-//W3C//DTD SVG 1.1//EN"
 "http://www.w3.org/Graphics/SVG/1.1/DTD/svg11.dtd">
<!-- Generated by graphviz version 14.0.0 (20250921.2048)
 -->
<!-- Title: BioFilterLib/src/BioFilterLib.h Pages: 1 -->
<svg width="730pt" height="208pt"
 viewBox="0.00 0.00 730.00 208.00" xmlns="http://www.w3.org/2000/svg" xmlns:xlink="http://www.w3.org/1999/xlink">
<g id="graph0" class="graph" transform="scale(1 1) rotate(0) translate(4 204)">
<title>BioFilterLib/src/BioFilterLib.h</title>
<!-- Node1 -->
<g id="Node000001" class="node">
<title>Node1</title>
<g id="a_Node000001"><a xlink:title=" ">
<polygon fill="#999999" stroke="#666666" points="435.17,-200 314.92,-200 314.92,-168 435.17,-168 435.17,-200"/>
<text xml:space="preserve" text-anchor="start" x="322.92" y="-186.5" font-family="Helvetica,sans-Serif" font-size="10.00">BioFilterLib/src/BioFilter</text>
<text xml:space="preserve" text-anchor="middle" x="375.05" y="-174.5" font-family="Helvetica,sans-Serif" font-size="10.00">Lib.h</text>
</a>
</g>
</g>
<!-- Node2 -->
<g id="Node000002" class="node">
<title>Node2</title>
<g id="a_Node000002"><a xlink:title=" ">
<polygon fill="#e0e0e0" stroke="#999999" points="575.67,-76 518.42,-76 518.42,-56 575.67,-56 575.67,-76"/>
<text xml:space="preserve" text-anchor="middle" x="547.05" y="-62.5" font-family="Helvetica,sans-Serif" font-size="10.00">Arduino.h</text>
</a>
</g>
</g>
<!-- Node1&#45;&gt;Node2 -->
<g id="edge1_Node000001_Node000002" class="edge">
<title>Node1&#45;&gt;Node2</title>
<g id="a_edge1_Node000001_Node000002"><a xlink:title=" ">
<path fill="none" stroke="#63b8ff" d="M435.49,-174.14C482.83,-165.82 543.09,-151.7 558.05,-132 567.88,-119.05 563.41,-100.47 557.49,-86.48"/>
<polygon fill="#63b8ff" stroke="#63b8ff" points="560.81,-85.31 553.33,-77.81 554.5,-88.34 560.81,-85.31"/>
</a>
</g>
</g>
<!-- Node3 -->
<g id="Node000003" class="node">
<title>Node3</title>
<g id="a_Node000003"><a xlink:title=" ">
<polygon fill="#e0e0e0" stroke="#999999" points="326.92,-20 259.17,-20 259.17,0 326.92,0 326.92,-20"/>
<text xml:space="preserve" text-anchor="middle" x="293.05" y="-6.5" font-family="Helvetica,sans-Serif" font-size="10.00">arm_math.h</text>
</a>
</g>
</g>
<!-- Node1&#45;&gt;Node3 -->
<g id="edge2_Node000001_Node000003" class="edge">
<title>Node1&#45;&gt;Node3</title>
<g id="a_edge2_Node000001_Node000003"><a xlink:title=" ">
<path fill="none" stroke="#63b8ff" d="M314.5,-183.6C222.02,-183.08 52.23,-175.96 14.05,-132 -54.84,-52.7 151.85,-23.58 247.39,-14.53"/>
<polygon fill="#63b8ff" stroke="#63b8ff" points="247.59,-18.03 257.23,-13.64 246.96,-11.06 247.59,-18.03"/>
</a>
</g>
</g>
<!-- Node4 -->
<g id="Node000004" class="node">
<title>Node4</title>
<g id="a_Node000004"><a xlink:href="_f_i_r_filter_8h.html" target="_top" xlink:title="Filtro FIR optimizado para bioseñales usando CMSIS&#45;DSP.">
<polygon fill="white" stroke="#666666" points="461.8,-76 372.3,-76 372.3,-56 461.8,-56 461.8,-76"/>
<text xml:space="preserve" text-anchor="middle" x="417.05" y="-62.5" font-family="Helvetica,sans-Serif" font-size="10.00">filters/FIRFilter.h</text>
</a>
</g>
</g>
<!-- Node1&#45;&gt;Node4 -->
<g id="edge3_Node000001_Node000004" class="edge">
<title>Node1&#45;&gt;Node4</title>
<g id="a_edge3_Node000001_Node000004"><a xlink:title=" ">
<path fill="none" stroke="#63b8ff" d="M380.54,-167.84C388.04,-147.13 401.49,-109.95 409.81,-86.99"/>
<polygon fill="#63b8ff" stroke="#63b8ff" points="413,-88.45 413.11,-77.86 406.42,-86.07 413,-88.45"/>
</a>
</g>
</g>
<!-- Node5 -->
<g id="Node000005" class="node">
<title>Node5</title>
<g id="a_Node000005"><a xlink:href="_i_i_r_filter_8h.html" target="_top" xlink:title="Filtro IIR de tipo Biquad en cascada, optimizado para bioseñales usando CMSIS&#45;DSP.">
<polygon fill="white" stroke="#666666" points="109.3,-132 22.8,-132 22.8,-112 109.3,-112 109.3,-132"/>
<text xml:space="preserve" text-anchor="middle" x="66.05" y="-118.5" font-family="Helvetica,sans-Serif" font-size="10.00">filters/IIRFilter.h</text>
</a>
</g>
</g>
<!-- Node1&#45;&gt;Node5 -->
<g id="edge5_Node000001_Node000005" class="edge">
<title>Node1&#45;&gt;Node5</title>
<g id="a_edge5_Node000001_Node000005"><a xlink:title=" ">
<path fill="none" stroke="#63b8ff" d="M314.73,-171.29C258.49,-160.37 175.32,-144.22 120.91,-133.65"/>
<polygon fill="#63b8ff" stroke="#63b8ff" points="121.72,-130.25 111.24,-131.78 120.39,-137.12 121.72,-130.25"/>
</a>
</g>
</g>
<!-- Node6 -->
<g id="Node000006" class="node">
<title>Node6</title>
<g id="a_Node000006"><a xlink:href="_l_m_s_filter_8h.html" target="_top" xlink:title="Filtro LMS (Least Mean Squares) adaptativo para bioseñales usando CMSIS&#45;DSP.">
<polygon fill="white" stroke="#666666" points="220.67,-132 127.42,-132 127.42,-112 220.67,-112 220.67,-132"/>
<text xml:space="preserve" text-anchor="middle" x="174.05" y="-118.5" font-family="Helvetica,sans-Serif" font-size="10.00">filters/LMSFilter.h</text>
</a>
</g>
</g>
<!-- Node1&#45;&gt;Node6 -->
<g id="edge7_Node000001_Node000006" class="edge">
<title>Node1&#45;&gt;Node6</title>
<g id="a_edge7_Node000001_Node000006"><a xlink:title=" ">
<path fill="none" stroke="#63b8ff" d="M323.28,-167.55C290.24,-157.68 247.91,-145.05 216.78,-135.76"/>
<polygon fill="#63b8ff" stroke="#63b8ff" points="217.89,-132.44 207.31,-132.93 215.89,-139.14 217.89,-132.44"/>
</a>
</g>
</g>
<!-- Node7 -->
<g id="Node000007" class="node">
<title>Node7</title>
<g id="a_Node000007"><a xlink:href="_wavelet_filter_8h.html" target="_top" xlink:title="Filtro Wavelet de banco de filtros optimizado para bioseñales usando CMSIS&#45;DSP.">
<polygon fill="white" stroke="#666666" points="347.17,-132 238.92,-132 238.92,-112 347.17,-112 347.17,-132"/>
<text xml:space="preserve" text-anchor="middle" x="293.05" y="-118.5" font-family="Helvetica,sans-Serif" font-size="10.00">filters/WaveletFilter.h</text>
</a>
</g>
</g>
<!-- Node1&#45;&gt;Node7 -->
<g id="edge9_Node000001_Node000007" class="edge">
<title>Node1&#45;&gt;Node7</title>
<g id="a_edge9_Node000001_Node000007"><a xlink:title=" ">
<path fill="none" stroke="#63b8ff" d="M353.93,-167.55C341.95,-158.78 326.98,-147.83 314.88,-138.97"/>
<polygon fill="#63b8ff" stroke="#63b8ff" points="317.26,-136.38 307.13,-133.3 313.13,-142.03 317.26,-136.38"/>
</a>
</g>
</g>
<!-- Node8 -->
<g id="Node000008" class="node">
<title>Node8</title>
<g id="a_Node000008"><a xlink:href="utils_8h.html" target="_top" xlink:title=" ">
<polygon fill="white" stroke="#666666" points="354.67,-76 291.42,-76 291.42,-56 354.67,-56 354.67,-76"/>
<text xml:space="preserve" text-anchor="middle" x="323.05" y="-62.5" font-family="Helvetica,sans-Serif" font-size="10.00">utils/utils.h</text>
</a>
</g>
</g>
<!-- Node1&#45;&gt;Node8 -->
<g id="edge11_Node000001_Node000008" class="edge">
<title>Node1&#45;&gt;Node8</title>
<g id="a_edge11_Node000001_Node000008"><a xlink:title=" ">
<path fill="none" stroke="#63b8ff" d="M372.66,-167.74C369.96,-152.96 364.76,-130.18 356.05,-112 351.51,-102.54 344.91,-93.03 338.8,-85.21"/>
<polygon fill="#63b8ff" stroke="#63b8ff" points="341.52,-83.01 332.48,-77.5 336.11,-87.45 341.52,-83.01"/>
</a>
</g>
</g>
<!-- Node9 -->
<g id="Node000009" class="node">
<title>Node9</title>
<g id="a_Node000009"><a xlink:href="_waveforms_8h.html" target="_top" xlink:title="Señales de prueba para BioFilterLib.">
<polygon fill="white" stroke="#666666" points="699.42,-132 604.67,-132 604.67,-112 699.42,-112 699.42,-132"/>
<text xml:space="preserve" text-anchor="middle" x="652.05" y="-118.5" font-family="Helvetica,sans-Serif" font-size="10.00">utils/Waveforms.h</text>
</a>
</g>
</g>
<!-- Node1&#45;&gt;Node9 -->
<g id="edge13_Node000001_Node000009" class="edge">
<title>Node1&#45;&gt;Node9</title>
<g id="a_edge13_Node000001_Node000009"><a xlink:title=" ">
<path fill="none" stroke="#63b8ff" d="M435.49,-169.91C483.73,-159.46 550.72,-144.95 597.37,-134.84"/>
<polygon fill="#63b8ff" stroke="#63b8ff" points="597.96,-138.3 607,-132.76 596.48,-131.45 597.96,-138.3"/>
</a>
</g>
</g>
<!-- Node12 -->
<g id="Node000012" class="node">
<title>Node12</title>
<g id="a_Node000012"><a xlink:href="utils__extended_8h.html" target="_top" xlink:title=" ">
<polygon fill="white" stroke="#666666" points="549.17,-132 440.92,-132 440.92,-112 549.17,-112 549.17,-132"/>
<text xml:space="preserve" text-anchor="middle" x="495.05" y="-118.5" font-family="Helvetica,sans-Serif" font-size="10.00">utils/utils_extended.h</text>
</a>
</g>
</g>
<!-- Node1&#45;&gt;Node12 -->
<g id="edge18_Node000001_Node000012" class="edge">
<title>Node1&#45;&gt;Node12</title>
<g id="a_edge18_Node000001_Node000012"><a xlink:title=" ">
<path fill="none" stroke="#63b8ff" d="M405.95,-167.55C424.44,-158.3 447.79,-146.63 465.95,-137.55"/>
<polygon fill="#63b8ff" stroke="#63b8ff" points="467.5,-140.69 474.88,-133.08 464.37,-134.43 467.5,-140.69"/>
</a>
</g>
</g>
<!-- Node4&#45;&gt;Node3 -->
<g id="edge4_Node000004_Node000003" class="edge">
<title>Node4&#45;&gt;Node3</title>
<g id="a_edge4_Node000004_Node000003"><a xlink:title=" ">
<path fill="none" stroke="#63b8ff" d="M395.45,-55.59C376.1,-47.17 347.44,-34.69 325.37,-25.07"/>
<polygon fill="#63b8ff" stroke="#63b8ff" points="326.77,-21.87 316.2,-21.08 323.97,-28.29 326.77,-21.87"/>
</a>
</g>
</g>
<!-- Node5&#45;&gt;Node3 -->
<g id="edge6_Node000005_Node000003" class="edge">
<title>Node5&#45;&gt;Node3</title>
<g id="a_edge6_Node000005_Node000003"><a xlink:title=" ">
<path fill="none" stroke="#63b8ff" d="M85.4,-111.62C125.19,-92.34 216.38,-48.15 263.56,-25.29"/>
<polygon fill="#63b8ff" stroke="#63b8ff" points="264.91,-28.53 272.38,-21.01 261.85,-22.23 264.91,-28.53"/>
</a>
</g>
</g>
<!-- Node6&#45;&gt;Node3 -->
<g id="edge8_Node000006_Node000003" class="edge">
<title>Node6&#45;&gt;Node3</title>
<g id="a_edge8_Node000006_Node000003"><a xlink:title=" ">
<path fill="none" stroke="#63b8ff" d="M184.19,-111.62C204.22,-93.11 249.07,-51.65 274.51,-28.13"/>
<polygon fill="#63b8ff" stroke="#63b8ff" points="276.85,-30.74 281.81,-21.38 272.1,-25.6 276.85,-30.74"/>
</a>
</g>
</g>
<!-- Node7&#45;&gt;Node3 -->
<g id="edge10_Node000007_Node000003" class="edge">
<title>Node7&#45;&gt;Node3</title>
<g id="a_edge10_Node000007_Node000003"><a xlink:title=" ">
<path fill="none" stroke="#63b8ff" d="M290.11,-111.81C287.4,-102.8 283.57,-88.62 282.05,-76 280.22,-60.84 283.28,-43.84 286.64,-31.02"/>
<polygon fill="#63b8ff" stroke="#63b8ff" points="289.92,-32.25 289.37,-21.67 283.2,-30.29 289.92,-32.25"/>
</a>
</g>
</g>
<!-- Node8&#45;&gt;Node3 -->
<g id="edge12_Node000008_Node000003" class="edge">
<title>Node8&#45;&gt;Node3</title>
<g id="a_edge12_Node000008_Node000003"><a xlink:title=" ">
<path fill="none" stroke="#63b8ff" d="M317.82,-55.59C313.95,-48.63 308.54,-38.89 303.76,-30.29"/>
<polygon fill="#63b8ff" stroke="#63b8ff" points="306.86,-28.66 298.95,-21.62 300.74,-32.06 306.86,-28.66"/>
</a>
</g>
</g>
<!-- Node9&#45;&gt;Node2 -->
<g id="edge14_Node000009_Node000002" class="edge">
<title>Node9&#45;&gt;Node2</title>
<g id="a_edge14_Node000009_Node000002"><a xlink:title=" ">
<path fill="none" stroke="#63b8ff" d="M633.76,-111.59C617.74,-103.36 594.21,-91.26 575.7,-81.74"/>
<polygon fill="#63b8ff" stroke="#63b8ff" points="577.32,-78.63 566.82,-77.17 574.12,-84.86 577.32,-78.63"/>
</a>
</g>
</g>
<!-- Node9&#45;&gt;Node3 -->
<g id="edge17_Node000009_Node000003" class="edge">
<title>Node9&#45;&gt;Node3</title>
<g id="a_edge17_Node000009_Node000003"><a xlink:title=" ">
<path fill="none" stroke="#63b8ff" d="M673.5,-111.62C698.91,-99.25 735.62,-76.65 717.05,-56 692.08,-28.24 443.19,-16.29 338.77,-12.47"/>
<polygon fill="#63b8ff" stroke="#63b8ff" points="339,-8.97 328.88,-12.12 338.75,-15.97 339,-8.97"/>
</a>
</g>
</g>
<!-- Node10 -->
<g id="Node000010" class="node">
<title>Node10</title>
<g id="a_Node000010"><a xlink:title=" ">
<polygon fill="#e0e0e0" stroke="#999999" points="642.17,-76 593.92,-76 593.92,-56 642.17,-56 642.17,-76"/>
<text xml:space="preserve" text-anchor="middle" x="618.05" y="-62.5" font-family="Helvetica,sans-Serif" font-size="10.00">stdint.h</text>
</a>
</g>
</g>
<!-- Node9&#45;&gt;Node10 -->
<g id="edge15_Node000009_Node000010" class="edge">
<title>Node9&#45;&gt;Node10</title>
<g id="a_edge15_Node000009_Node000010"><a xlink:title=" ">
<path fill="none" stroke="#63b8ff" d="M646.12,-111.59C641.69,-104.55 635.47,-94.67 630.01,-86"/>
<polygon fill="#63b8ff" stroke="#63b8ff" points="633,-84.18 624.71,-77.58 627.07,-87.91 633,-84.18"/>
</a>
</g>
</g>
<!-- Node11 -->
<g id="Node000011" class="node">
<title>Node11</title>
<g id="a_Node000011"><a xlink:title=" ">
<polygon fill="#e0e0e0" stroke="#999999" points="708.17,-76 659.92,-76 659.92,-56 708.17,-56 708.17,-76"/>
<text xml:space="preserve" text-anchor="middle" x="684.05" y="-62.5" font-family="Helvetica,sans-Serif" font-size="10.00">string.h</text>
</a>
</g>
</g>
<!-- Node9&#45;&gt;Node11 -->
<g id="edge16_Node000009_Node000011" class="edge">
<title>Node9&#45;&gt;Node11</title>
<g id="a_edge16_Node000009_Node000011"><a xlink:title=" ">
<path fill="none" stroke="#63b8ff" d="M657.62,-111.59C661.8,-104.55 667.65,-94.67 672.79,-86"/>
<polygon fill="#63b8ff" stroke="#63b8ff" points="675.68,-87.99 677.76,-77.6 669.66,-84.42 675.68,-87.99"/>
</a>
</g>
</g>
<!-- Node12&#45;&gt;Node2 -->
<g id="edge19_Node000012_Node000002" class="edge">
<title>Node12&#45;&gt;Node2</title>
<g id="a_edge19_Node000012_Node000002"><a xlink:title=" ">
<path fill="none" stroke="#63b8ff" d="M504.1,-111.59C511.26,-104.16 521.45,-93.58 530.11,-84.58"/>
<polygon fill="#63b8ff" stroke="#63b8ff" points="532.63,-87.02 537.04,-77.39 527.58,-82.16 532.63,-87.02"/>
</a>
</g>
</g>
<!-- Node12&#45;&gt;Node3 -->
<g id="edge20_Node000012_Node000003" class="edge">
<title>Node12&#45;&gt;Node3</title>
<g id="a_edge20_Node000012_Node000003"><a xlink:title=" ">
<path fill="none" stroke="#63b8ff" d="M494.27,-111.52C492.59,-97.32 487.33,-70.64 471.05,-56 434.77,-23.39 378.26,-13.68 338.67,-11.15"/>
<polygon fill="#63b8ff" stroke="#63b8ff" points="338.89,-7.66 328.73,-10.67 338.55,-14.65 338.89,-7.66"/>
</a>
</g>
</g>
<!-- Node12&#45;&gt;Node4 -->
<g id="edge21_Node000012_Node000004" class="edge">
<title>Node12&#45;&gt;Node4</title>
<g id="a_edge21_Node000012_Node000004"><a xlink:title=" ">
<path fill="none" stroke="#63b8ff" d="M481.46,-111.59C470.01,-103.67 453.38,-92.16 439.89,-82.82"/>
<polygon fill="#63b8ff" stroke="#63b8ff" points="442.2,-80.16 431.98,-77.34 438.21,-85.91 442.2,-80.16"/>
</a>
</g>
</g>
</g>
</svg>
