<?xml version="1.0" encoding="UTF-8" standalone="no"?>
<!DOCTYPE svg PUBLIC "-//W3C//DTD SVG 1.1//EN"
 "http://www.w3.org/Graphics/SVG/1.1/DTD/svg11.dtd">
<!-- Generated by graphviz version 14.0.0 (20250921.2048)
 -->
<!-- Title: BioFilterLib/examples/FIR_Example.cpp Pages: 1 -->
<svg width="393pt" height="208pt"
 viewBox="0.00 0.00 393.00 208.00" xmlns="http://www.w3.org/2000/svg" xmlns:xlink="http://www.w3.org/1999/xlink">
<g id="graph0" class="graph" transform="scale(1 1) rotate(0) translate(4 204)">
<title>BioFilterLib/examples/FIR_Example.cpp</title>
<!-- Node1 -->
<g id="Node000001" class="node">
<title>Node1</title>
<g id="a_Node000001"><a xlink:title=" ">
<polygon fill="#999999" stroke="#666666" points="218.28,-200 108.53,-200 108.53,-168 218.28,-168 218.28,-200"/>
<text xml:space="preserve" text-anchor="start" x="116.53" y="-186.5" font-family="Helvetica,sans-Serif" font-size="10.00">BioFilterLib/examples</text>
<text xml:space="preserve" text-anchor="middle" x="163.4" y="-174.5" font-family="Helvetica,sans-Serif" font-size="10.00">/FIR_Example.cpp</text>
</a>
</g>
</g>
<!-- Node2 -->
<g id="Node000002" class="node">
<title>Node2</title>
<g id="a_Node000002"><a xlink:title=" ">
<polygon fill="#e0e0e0" stroke="#999999" points="99.03,-20 41.78,-20 41.78,0 99.03,0 99.03,-20"/>
<text xml:space="preserve" text-anchor="middle" x="70.4" y="-6.5" font-family="Helvetica,sans-Serif" font-size="10.00">Arduino.h</text>
</a>
</g>
</g>
<!-- Node1&#45;&gt;Node2 -->
<g id="edge1_Node000001_Node000002" class="edge">
<title>Node1&#45;&gt;Node2</title>
<g id="a_edge1_Node000001_Node000002"><a xlink:title=" ">
<path fill="none" stroke="#63b8ff" d="M119.74,-167.51C81.32,-151.27 27.81,-121.68 3.4,-76 -7.61,-55.39 15.03,-37.38 36.91,-25.58"/>
<polygon fill="#63b8ff" stroke="#63b8ff" points="38.4,-28.75 45.76,-21.13 35.26,-22.49 38.4,-28.75"/>
</a>
</g>
</g>
<!-- Node3 -->
<g id="Node000003" class="node">
<title>Node3</title>
<g id="a_Node000003"><a xlink:href="_bio_filter_lib_8h.html" target="_top" xlink:title=" ">
<polygon fill="white" stroke="#666666" points="199.9,-132 126.9,-132 126.9,-112 199.9,-112 199.9,-132"/>
<text xml:space="preserve" text-anchor="middle" x="163.4" y="-118.5" font-family="Helvetica,sans-Serif" font-size="10.00">BioFilterLib.h</text>
</a>
</g>
</g>
<!-- Node1&#45;&gt;Node3 -->
<g id="edge2_Node000001_Node000003" class="edge">
<title>Node1&#45;&gt;Node3</title>
<g id="a_edge2_Node000001_Node000003"><a xlink:title=" ">
<path fill="none" stroke="#63b8ff" d="M163.4,-167.55C163.4,-160.34 163.4,-151.66 163.4,-143.88"/>
<polygon fill="#63b8ff" stroke="#63b8ff" points="166.9,-143.92 163.4,-133.92 159.9,-143.92 166.9,-143.92"/>
</a>
</g>
</g>
<!-- Node8 -->
<g id="Node000008" class="node">
<title>Node8</title>
<g id="a_Node000008"><a xlink:href="_waveforms_8h.html" target="_top" xlink:title=" ">
<polygon fill="white" stroke="#666666" points="344.28,-132 270.53,-132 270.53,-112 344.28,-112 344.28,-132"/>
<text xml:space="preserve" text-anchor="middle" x="307.4" y="-118.5" font-family="Helvetica,sans-Serif" font-size="10.00">Waveforms.h</text>
</a>
</g>
</g>
<!-- Node1&#45;&gt;Node8 -->
<g id="edge12_Node000001_Node000008" class="edge">
<title>Node1&#45;&gt;Node8</title>
<g id="a_edge12_Node000001_Node000008"><a xlink:title=" ">
<path fill="none" stroke="#63b8ff" d="M200.49,-167.55C223.3,-158.04 252.28,-145.97 274.31,-136.79"/>
<polygon fill="#63b8ff" stroke="#63b8ff" points="275.54,-140.07 283.43,-132.99 272.85,-133.61 275.54,-140.07"/>
</a>
</g>
</g>
<!-- Node4 -->
<g id="Node000004" class="node">
<title>Node4</title>
<g id="a_Node000004"><a xlink:href="_f_i_r_filter_8h.html" target="_top" xlink:title="Filtro FIR optimizado para bioseñales usando CMSIS&#45;DSP.">
<polygon fill="white" stroke="#666666" points="102.15,-76 12.65,-76 12.65,-56 102.15,-56 102.15,-76"/>
<text xml:space="preserve" text-anchor="middle" x="57.4" y="-62.5" font-family="Helvetica,sans-Serif" font-size="10.00">filters/FIRFilter.h</text>
</a>
</g>
</g>
<!-- Node3&#45;&gt;Node4 -->
<g id="edge3_Node000003_Node000004" class="edge">
<title>Node3&#45;&gt;Node4</title>
<g id="a_edge3_Node000003_Node000004"><a xlink:title=" ">
<path fill="none" stroke="#63b8ff" d="M144.94,-111.59C128.7,-103.32 104.8,-91.14 86.07,-81.6"/>
<polygon fill="#63b8ff" stroke="#63b8ff" points="87.86,-78.59 77.36,-77.17 84.68,-84.82 87.86,-78.59"/>
</a>
</g>
</g>
<!-- Node6 -->
<g id="Node000006" class="node">
<title>Node6</title>
<g id="a_Node000006"><a xlink:href="_i_i_r_filter_8h.html" target="_top" xlink:title="Filtro IIR de tipo Biquad en cascada, optimizado para bioseñales usando CMSIS&#45;DSP.">
<polygon fill="white" stroke="#666666" points="206.65,-76 120.15,-76 120.15,-56 206.65,-56 206.65,-76"/>
<text xml:space="preserve" text-anchor="middle" x="163.4" y="-62.5" font-family="Helvetica,sans-Serif" font-size="10.00">filters/IIRFilter.h</text>
</a>
</g>
</g>
<!-- Node3&#45;&gt;Node6 -->
<g id="edge6_Node000003_Node000006" class="edge">
<title>Node3&#45;&gt;Node6</title>
<g id="a_edge6_Node000003_Node000006"><a xlink:title=" ">
<path fill="none" stroke="#63b8ff" d="M163.4,-111.59C163.4,-105.01 163.4,-95.96 163.4,-87.73"/>
<polygon fill="#63b8ff" stroke="#63b8ff" points="166.9,-87.81 163.4,-77.81 159.9,-87.81 166.9,-87.81"/>
</a>
</g>
</g>
<!-- Node7 -->
<g id="Node000007" class="node">
<title>Node7</title>
<g id="a_Node000007"><a xlink:href="_l_m_s_filter_8h.html" target="_top" xlink:title="Filtro LMS (Least Mean Squares) adaptativo para bioseñales usando CMSIS&#45;DSP.">
<polygon fill="white" stroke="#666666" points="318.03,-76 224.78,-76 224.78,-56 318.03,-56 318.03,-76"/>
<text xml:space="preserve" text-anchor="middle" x="271.4" y="-62.5" font-family="Helvetica,sans-Serif" font-size="10.00">filters/LMSFilter.h</text>
</a>
</g>
</g>
<!-- Node3&#45;&gt;Node7 -->
<g id="edge9_Node000003_Node000007" class="edge">
<title>Node3&#45;&gt;Node7</title>
<g id="a_edge9_Node000003_Node000007"><a xlink:title=" ">
<path fill="none" stroke="#63b8ff" d="M182.21,-111.59C198.76,-103.32 223.11,-91.14 242.19,-81.6"/>
<polygon fill="#63b8ff" stroke="#63b8ff" points="243.71,-84.76 251.09,-77.16 240.58,-78.5 243.71,-84.76"/>
</a>
</g>
</g>
<!-- Node4&#45;&gt;Node2 -->
<g id="edge4_Node000004_Node000002" class="edge">
<title>Node4&#45;&gt;Node2</title>
<g id="a_edge4_Node000004_Node000002"><a xlink:title=" ">
<path fill="none" stroke="#63b8ff" d="M59.67,-55.59C61.27,-48.93 63.48,-39.75 65.48,-31.44"/>
<polygon fill="#63b8ff" stroke="#63b8ff" points="68.87,-32.31 67.81,-21.77 62.07,-30.67 68.87,-32.31"/>
</a>
</g>
</g>
<!-- Node5 -->
<g id="Node000005" class="node">
<title>Node5</title>
<g id="a_Node000005"><a xlink:title=" ">
<polygon fill="#e0e0e0" stroke="#999999" points="197.28,-20 129.53,-20 129.53,0 197.28,0 197.28,-20"/>
<text xml:space="preserve" text-anchor="middle" x="163.4" y="-6.5" font-family="Helvetica,sans-Serif" font-size="10.00">arm_math.h</text>
</a>
</g>
</g>
<!-- Node4&#45;&gt;Node5 -->
<g id="edge5_Node000004_Node000005" class="edge">
<title>Node4&#45;&gt;Node5</title>
<g id="a_edge5_Node000004_Node000005"><a xlink:title=" ">
<path fill="none" stroke="#63b8ff" d="M75.87,-55.59C92.11,-47.32 116.01,-35.14 134.73,-25.6"/>
<polygon fill="#63b8ff" stroke="#63b8ff" points="136.12,-28.82 143.45,-21.17 132.95,-22.59 136.12,-28.82"/>
</a>
</g>
</g>
<!-- Node6&#45;&gt;Node2 -->
<g id="edge7_Node000006_Node000002" class="edge">
<title>Node6&#45;&gt;Node2</title>
<g id="a_edge7_Node000006_Node000002"><a xlink:title=" ">
<path fill="none" stroke="#63b8ff" d="M147.2,-55.59C133.15,-47.44 112.57,-35.48 96.24,-26"/>
<polygon fill="#63b8ff" stroke="#63b8ff" points="98.44,-23.23 88.04,-21.24 94.93,-29.29 98.44,-23.23"/>
</a>
</g>
</g>
<!-- Node6&#45;&gt;Node5 -->
<g id="edge8_Node000006_Node000005" class="edge">
<title>Node6&#45;&gt;Node5</title>
<g id="a_edge8_Node000006_Node000005"><a xlink:title=" ">
<path fill="none" stroke="#63b8ff" d="M163.4,-55.59C163.4,-49.01 163.4,-39.96 163.4,-31.73"/>
<polygon fill="#63b8ff" stroke="#63b8ff" points="166.9,-31.81 163.4,-21.81 159.9,-31.81 166.9,-31.81"/>
</a>
</g>
</g>
<!-- Node7&#45;&gt;Node2 -->
<g id="edge10_Node000007_Node000002" class="edge">
<title>Node7&#45;&gt;Node2</title>
<g id="a_edge10_Node000007_Node000002"><a xlink:title=" ">
<path fill="none" stroke="#63b8ff" d="M236.39,-55.59C201.22,-46.15 147.11,-31.61 110.3,-21.72"/>
<polygon fill="#63b8ff" stroke="#63b8ff" points="111.5,-18.42 100.94,-19.2 109.69,-25.18 111.5,-18.42"/>
</a>
</g>
</g>
<!-- Node7&#45;&gt;Node5 -->
<g id="edge11_Node000007_Node000005" class="edge">
<title>Node7&#45;&gt;Node5</title>
<g id="a_edge11_Node000007_Node000005"><a xlink:title=" ">
<path fill="none" stroke="#63b8ff" d="M252.59,-55.59C236.04,-47.32 211.69,-35.14 192.61,-25.6"/>
<polygon fill="#63b8ff" stroke="#63b8ff" points="194.22,-22.5 183.71,-21.16 191.09,-28.76 194.22,-22.5"/>
</a>
</g>
</g>
<!-- Node9 -->
<g id="Node000009" class="node">
<title>Node9</title>
<g id="a_Node000009"><a xlink:title=" ">
<polygon fill="#e0e0e0" stroke="#999999" points="384.53,-76 336.28,-76 336.28,-56 384.53,-56 384.53,-76"/>
<text xml:space="preserve" text-anchor="middle" x="360.4" y="-62.5" font-family="Helvetica,sans-Serif" font-size="10.00">stdint.h</text>
</a>
</g>
</g>
<!-- Node8&#45;&gt;Node9 -->
<g id="edge13_Node000008_Node000009" class="edge">
<title>Node8&#45;&gt;Node9</title>
<g id="a_edge13_Node000008_Node000009"><a xlink:title=" ">
<path fill="none" stroke="#63b8ff" d="M316.63,-111.59C324.01,-104.08 334.54,-93.35 343.42,-84.3"/>
<polygon fill="#63b8ff" stroke="#63b8ff" points="345.71,-86.97 350.22,-77.38 340.71,-82.06 345.71,-86.97"/>
</a>
</g>
</g>
</g>
</svg>
