<?xml version="1.0" encoding="UTF-8" standalone="no"?>
<!DOCTYPE svg PUBLIC "-//W3C//DTD SVG 1.1//EN"
 "http://www.w3.org/Graphics/SVG/1.1/DTD/svg11.dtd">
<!-- Generated by graphviz version 14.0.0 (20250921.2048)
 -->
<!-- Title: BioFilterLib/src/filters/IIRFilter.cpp Pages: 1 -->
<svg width="116pt" height="152pt"
 viewBox="0.00 0.00 116.00 152.00" xmlns="http://www.w3.org/2000/svg" xmlns:xlink="http://www.w3.org/1999/xlink">
<g id="graph0" class="graph" transform="scale(1 1) rotate(0) translate(4 148)">
<title>BioFilterLib/src/filters/IIRFilter.cpp</title>
<!-- Node1 -->
<g id="Node000001" class="node">
<title>Node1</title>
<g id="a_Node000001"><a xlink:title="Implementación del filtro IIR Biquad optimizado para bioseñales.">
<polygon fill="#999999" stroke="#666666" points="108.25,-144 0,-144 0,-112 108.25,-112 108.25,-144"/>
<text xml:space="preserve" text-anchor="start" x="8" y="-130.5" font-family="Helvetica,sans-Serif" font-size="10.00">BioFilterLib/src/filters</text>
<text xml:space="preserve" text-anchor="middle" x="54.12" y="-118.5" font-family="Helvetica,sans-Serif" font-size="10.00">/IIRFilter.cpp</text>
</a>
</g>
</g>
<!-- Node2 -->
<g id="Node000002" class="node">
<title>Node2</title>
<g id="a_Node000002"><a xlink:href="_i_i_r_filter_8h.html" target="_top" xlink:title="Filtro IIR de tipo Biquad en cascada, optimizado para bioseñales usando CMSIS&#45;DSP.">
<polygon fill="white" stroke="#666666" points="83.88,-76 24.37,-76 24.37,-56 83.88,-56 83.88,-76"/>
<text xml:space="preserve" text-anchor="middle" x="54.12" y="-62.5" font-family="Helvetica,sans-Serif" font-size="10.00">IIRFilter.h</text>
</a>
</g>
</g>
<!-- Node1&#45;&gt;Node2 -->
<g id="edge1_Node000001_Node000002" class="edge">
<title>Node1&#45;&gt;Node2</title>
<g id="a_edge1_Node000001_Node000002"><a xlink:title=" ">
<path fill="none" stroke="#63b8ff" d="M54.12,-111.55C54.12,-104.34 54.12,-95.66 54.12,-87.88"/>
<polygon fill="#63b8ff" stroke="#63b8ff" points="57.63,-87.92 54.13,-77.92 50.63,-87.92 57.63,-87.92"/>
</a>
</g>
</g>
<!-- Node3 -->
<g id="Node000003" class="node">
<title>Node3</title>
<g id="a_Node000003"><a xlink:title=" ">
<polygon fill="#e0e0e0" stroke="#999999" points="88,-20 20.25,-20 20.25,0 88,0 88,-20"/>
<text xml:space="preserve" text-anchor="middle" x="54.12" y="-6.5" font-family="Helvetica,sans-Serif" font-size="10.00">arm_math.h</text>
</a>
</g>
</g>
<!-- Node2&#45;&gt;Node3 -->
<g id="edge2_Node000002_Node000003" class="edge">
<title>Node2&#45;&gt;Node3</title>
<g id="a_edge2_Node000002_Node000003"><a xlink:title=" ">
<path fill="none" stroke="#63b8ff" d="M54.12,-55.59C54.12,-49.01 54.12,-39.96 54.12,-31.73"/>
<polygon fill="#63b8ff" stroke="#63b8ff" points="57.63,-31.81 54.13,-21.81 50.63,-31.81 57.63,-31.81"/>
</a>
</g>
</g>
</g>
</svg>
