<?xml version="1.0" encoding="UTF-8" standalone="no"?>
<!DOCTYPE svg PUBLIC "-//W3C//DTD SVG 1.1//EN"
 "http://www.w3.org/Graphics/SVG/1.1/DTD/svg11.dtd">
<!-- Generated by graphviz version 14.0.0 (20250921.2048)
 -->
<!-- Title: BioFilterLib/examples/IIR_Example.cpp Pages: 1 -->
<svg width="361pt" height="208pt"
 viewBox="0.00 0.00 361.00 208.00" xmlns="http://www.w3.org/2000/svg" xmlns:xlink="http://www.w3.org/1999/xlink">
<g id="graph0" class="graph" transform="scale(1 1) rotate(0) translate(4 204)">
<title>BioFilterLib/examples/IIR_Example.cpp</title>
<!-- Node1 -->
<g id="Node000001" class="node">
<title>Node1</title>
<g id="a_Node000001"><a xlink:title="Ejemplo de uso de la clase IIRFilter para eliminar la deriva de línea base en una señal simulada de E...">
<polygon fill="#999999" stroke="#666666" points="109.75,-200 0,-200 0,-168 109.75,-168 109.75,-200"/>
<text xml:space="preserve" text-anchor="start" x="8" y="-186.5" font-family="Helvetica,sans-Serif" font-size="10.00">BioFilterLib/examples</text>
<text xml:space="preserve" text-anchor="middle" x="54.88" y="-174.5" font-family="Helvetica,sans-Serif" font-size="10.00">/IIR_Example.cpp</text>
</a>
</g>
</g>
<!-- Node2 -->
<g id="Node000002" class="node">
<title>Node2</title>
<g id="a_Node000002"><a xlink:title=" ">
<polygon fill="#e0e0e0" stroke="#999999" points="133.5,-20 76.25,-20 76.25,0 133.5,0 133.5,-20"/>
<text xml:space="preserve" text-anchor="middle" x="104.88" y="-6.5" font-family="Helvetica,sans-Serif" font-size="10.00">Arduino.h</text>
</a>
</g>
</g>
<!-- Node1&#45;&gt;Node2 -->
<g id="edge1_Node000001_Node000002" class="edge">
<title>Node1&#45;&gt;Node2</title>
<g id="a_edge1_Node000001_Node000002"><a xlink:title=" ">
<path fill="none" stroke="#63b8ff" d="M47.39,-167.9C36.21,-143.01 18.41,-92.51 37.88,-56 44.9,-42.83 57.67,-32.83 70.2,-25.64"/>
<polygon fill="#63b8ff" stroke="#63b8ff" points="71.5,-28.91 78.74,-21.17 68.26,-22.7 71.5,-28.91"/>
</a>
</g>
</g>
<!-- Node3 -->
<g id="Node000003" class="node">
<title>Node3</title>
<g id="a_Node000003"><a xlink:href="_bio_filter_lib_8h.html" target="_top" xlink:title=" ">
<polygon fill="white" stroke="#666666" points="181.38,-132 108.38,-132 108.38,-112 181.38,-112 181.38,-132"/>
<text xml:space="preserve" text-anchor="middle" x="144.88" y="-118.5" font-family="Helvetica,sans-Serif" font-size="10.00">BioFilterLib.h</text>
</a>
</g>
</g>
<!-- Node1&#45;&gt;Node3 -->
<g id="edge2_Node000001_Node000003" class="edge">
<title>Node1&#45;&gt;Node3</title>
<g id="a_edge2_Node000001_Node000003"><a xlink:title=" ">
<path fill="none" stroke="#63b8ff" d="M78.05,-167.55C91.33,-158.69 107.96,-147.61 121.31,-138.71"/>
<polygon fill="#63b8ff" stroke="#63b8ff" points="123.12,-141.71 129.5,-133.25 119.24,-135.88 123.12,-141.71"/>
</a>
</g>
</g>
<!-- Node4 -->
<g id="Node000004" class="node">
<title>Node4</title>
<g id="a_Node000004"><a xlink:href="_f_i_r_filter_8h.html" target="_top" xlink:title="Filtro FIR optimizado para bioseñales usando CMSIS&#45;DSP.">
<polygon fill="white" stroke="#666666" points="136.62,-76 47.12,-76 47.12,-56 136.62,-56 136.62,-76"/>
<text xml:space="preserve" text-anchor="middle" x="91.88" y="-62.5" font-family="Helvetica,sans-Serif" font-size="10.00">filters/FIRFilter.h</text>
</a>
</g>
</g>
<!-- Node3&#45;&gt;Node4 -->
<g id="edge3_Node000003_Node000004" class="edge">
<title>Node3&#45;&gt;Node4</title>
<g id="a_edge3_Node000003_Node000004"><a xlink:title=" ">
<path fill="none" stroke="#63b8ff" d="M135.64,-111.59C128.27,-104.08 117.74,-93.35 108.86,-84.3"/>
<polygon fill="#63b8ff" stroke="#63b8ff" points="111.56,-82.06 102.06,-77.38 106.57,-86.97 111.56,-82.06"/>
</a>
</g>
</g>
<!-- Node6 -->
<g id="Node000006" class="node">
<title>Node6</title>
<g id="a_Node000006"><a xlink:href="_i_i_r_filter_8h.html" target="_top" xlink:title="Filtro IIR de tipo Biquad en cascada, optimizado para bioseñales usando CMSIS&#45;DSP.">
<polygon fill="white" stroke="#666666" points="241.12,-76 154.62,-76 154.62,-56 241.12,-56 241.12,-76"/>
<text xml:space="preserve" text-anchor="middle" x="197.88" y="-62.5" font-family="Helvetica,sans-Serif" font-size="10.00">filters/IIRFilter.h</text>
</a>
</g>
</g>
<!-- Node3&#45;&gt;Node6 -->
<g id="edge6_Node000003_Node000006" class="edge">
<title>Node3&#45;&gt;Node6</title>
<g id="a_edge6_Node000003_Node000006"><a xlink:title=" ">
<path fill="none" stroke="#63b8ff" d="M154.11,-111.59C161.48,-104.08 172.01,-93.35 180.89,-84.3"/>
<polygon fill="#63b8ff" stroke="#63b8ff" points="183.18,-86.97 187.69,-77.38 178.19,-82.06 183.18,-86.97"/>
</a>
</g>
</g>
<!-- Node7 -->
<g id="Node000007" class="node">
<title>Node7</title>
<g id="a_Node000007"><a xlink:href="_l_m_s_filter_8h.html" target="_top" xlink:title="Filtro LMS (Least Mean Squares) adaptativo para bioseñales usando CMSIS&#45;DSP.">
<polygon fill="white" stroke="#666666" points="352.5,-76 259.25,-76 259.25,-56 352.5,-56 352.5,-76"/>
<text xml:space="preserve" text-anchor="middle" x="305.88" y="-62.5" font-family="Helvetica,sans-Serif" font-size="10.00">filters/LMSFilter.h</text>
</a>
</g>
</g>
<!-- Node3&#45;&gt;Node7 -->
<g id="edge9_Node000003_Node000007" class="edge">
<title>Node3&#45;&gt;Node7</title>
<g id="a_edge9_Node000003_Node000007"><a xlink:title=" ">
<path fill="none" stroke="#63b8ff" d="M172.92,-111.59C198.96,-102.86 237.98,-89.77 267.02,-80.03"/>
<polygon fill="#63b8ff" stroke="#63b8ff" points="267.81,-83.46 276.18,-76.96 265.58,-76.82 267.81,-83.46"/>
</a>
</g>
</g>
<!-- Node4&#45;&gt;Node2 -->
<g id="edge4_Node000004_Node000002" class="edge">
<title>Node4&#45;&gt;Node2</title>
<g id="a_edge4_Node000004_Node000002"><a xlink:title=" ">
<path fill="none" stroke="#63b8ff" d="M94.14,-55.59C95.74,-48.93 97.95,-39.75 99.95,-31.44"/>
<polygon fill="#63b8ff" stroke="#63b8ff" points="103.34,-32.31 102.28,-21.77 96.54,-30.67 103.34,-32.31"/>
</a>
</g>
</g>
<!-- Node5 -->
<g id="Node000005" class="node">
<title>Node5</title>
<g id="a_Node000005"><a xlink:title=" ">
<polygon fill="#e0e0e0" stroke="#999999" points="231.75,-20 164,-20 164,0 231.75,0 231.75,-20"/>
<text xml:space="preserve" text-anchor="middle" x="197.88" y="-6.5" font-family="Helvetica,sans-Serif" font-size="10.00">arm_math.h</text>
</a>
</g>
</g>
<!-- Node4&#45;&gt;Node5 -->
<g id="edge5_Node000004_Node000005" class="edge">
<title>Node4&#45;&gt;Node5</title>
<g id="a_edge5_Node000004_Node000005"><a xlink:title=" ">
<path fill="none" stroke="#63b8ff" d="M110.34,-55.59C126.58,-47.32 150.48,-35.14 169.21,-25.6"/>
<polygon fill="#63b8ff" stroke="#63b8ff" points="170.6,-28.82 177.92,-21.17 167.42,-22.59 170.6,-28.82"/>
</a>
</g>
</g>
<!-- Node6&#45;&gt;Node2 -->
<g id="edge7_Node000006_Node000002" class="edge">
<title>Node6&#45;&gt;Node2</title>
<g id="a_edge7_Node000006_Node000002"><a xlink:title=" ">
<path fill="none" stroke="#63b8ff" d="M181.68,-55.59C167.63,-47.44 147.04,-35.48 130.72,-26"/>
<polygon fill="#63b8ff" stroke="#63b8ff" points="132.92,-23.23 122.51,-21.24 129.4,-29.29 132.92,-23.23"/>
</a>
</g>
</g>
<!-- Node6&#45;&gt;Node5 -->
<g id="edge8_Node000006_Node000005" class="edge">
<title>Node6&#45;&gt;Node5</title>
<g id="a_edge8_Node000006_Node000005"><a xlink:title=" ">
<path fill="none" stroke="#63b8ff" d="M197.88,-55.59C197.88,-49.01 197.88,-39.96 197.88,-31.73"/>
<polygon fill="#63b8ff" stroke="#63b8ff" points="201.38,-31.81 197.88,-21.81 194.38,-31.81 201.38,-31.81"/>
</a>
</g>
</g>
<!-- Node7&#45;&gt;Node2 -->
<g id="edge10_Node000007_Node000002" class="edge">
<title>Node7&#45;&gt;Node2</title>
<g id="a_edge10_Node000007_Node000002"><a xlink:title=" ">
<path fill="none" stroke="#63b8ff" d="M270.86,-55.59C235.7,-46.15 181.58,-31.61 144.78,-21.72"/>
<polygon fill="#63b8ff" stroke="#63b8ff" points="145.98,-18.42 135.41,-19.2 144.16,-25.18 145.98,-18.42"/>
</a>
</g>
</g>
<!-- Node7&#45;&gt;Node5 -->
<g id="edge11_Node000007_Node000005" class="edge">
<title>Node7&#45;&gt;Node5</title>
<g id="a_edge11_Node000007_Node000005"><a xlink:title=" ">
<path fill="none" stroke="#63b8ff" d="M287.06,-55.59C270.52,-47.32 246.16,-35.14 227.08,-25.6"/>
<polygon fill="#63b8ff" stroke="#63b8ff" points="228.7,-22.5 218.19,-21.16 225.57,-28.76 228.7,-22.5"/>
</a>
</g>
</g>
</g>
</svg>
