<?xml version="1.0" encoding="UTF-8" standalone="no"?>
<!DOCTYPE svg PUBLIC "-//W3C//DTD SVG 1.1//EN"
 "http://www.w3.org/Graphics/SVG/1.1/DTD/svg11.dtd">
<!-- Generated by graphviz version 14.0.0 (20250921.2048)
 -->
<!-- Title: BioFilterLib/src/filters/WaveletFilter.h Pages: 1 -->
<svg width="254pt" height="108pt"
 viewBox="0.00 0.00 254.00 108.00" xmlns="http://www.w3.org/2000/svg" xmlns:xlink="http://www.w3.org/1999/xlink">
<g id="graph0" class="graph" transform="scale(1 1) rotate(0) translate(4 104)">
<title>BioFilterLib/src/filters/WaveletFilter.h</title>
<!-- Node1 -->
<g id="Node000001" class="node">
<title>Node1</title>
<g id="a_Node000001"><a xlink:title="Filtro Wavelet de banco de filtros optimizado para bioseñales usando CMSIS&#45;DSP.">
<polygon fill="#999999" stroke="#666666" points="180.25,-100 72,-100 72,-68 180.25,-68 180.25,-100"/>
<text xml:space="preserve" text-anchor="start" x="80" y="-86.5" font-family="Helvetica,sans-Serif" font-size="10.00">BioFilterLib/src/filters</text>
<text xml:space="preserve" text-anchor="middle" x="126.12" y="-74.5" font-family="Helvetica,sans-Serif" font-size="10.00">/WaveletFilter.h</text>
</a>
</g>
</g>
<!-- Node2 -->
<g id="Node000002" class="node">
<title>Node2</title>
<g id="a_Node000002"><a xlink:href="_bio_filter_lib_8h.html" target="_top" xlink:title=" ">
<polygon fill="white" stroke="#666666" points="120.25,-32 0,-32 0,0 120.25,0 120.25,-32"/>
<text xml:space="preserve" text-anchor="start" x="8" y="-18.5" font-family="Helvetica,sans-Serif" font-size="10.00">BioFilterLib/src/BioFilter</text>
<text xml:space="preserve" text-anchor="middle" x="60.12" y="-6.5" font-family="Helvetica,sans-Serif" font-size="10.00">Lib.h</text>
</a>
</g>
</g>
<!-- Node1&#45;&gt;Node2 -->
<g id="edge1_Node000001_Node000002" class="edge">
<title>Node1&#45;&gt;Node2</title>
<g id="a_edge1_Node000001_Node000002"><a xlink:title=" ">
<path fill="none" stroke="#63b8ff" d="M102.83,-59.71C93.71,-50.59 83.5,-40.37 75.35,-32.22"/>
<polygon fill="#63b8ff" stroke="#63b8ff" points="100.2,-62.03 109.75,-66.62 105.15,-57.08 100.2,-62.03"/>
</a>
</g>
</g>
<!-- Node3 -->
<g id="Node000003" class="node">
<title>Node3</title>
<g id="a_Node000003"><a xlink:href="_wavelet_filter_8cpp.html" target="_top" xlink:title="Implementación del filtro Wavelet optimizado para bioseñales.">
<polygon fill="white" stroke="#666666" points="246.25,-32 138,-32 138,0 246.25,0 246.25,-32"/>
<text xml:space="preserve" text-anchor="start" x="146" y="-18.5" font-family="Helvetica,sans-Serif" font-size="10.00">BioFilterLib/src/filters</text>
<text xml:space="preserve" text-anchor="middle" x="192.12" y="-6.5" font-family="Helvetica,sans-Serif" font-size="10.00">/WaveletFilter.cpp</text>
</a>
</g>
</g>
<!-- Node1&#45;&gt;Node3 -->
<g id="edge2_Node000001_Node000003" class="edge">
<title>Node1&#45;&gt;Node3</title>
<g id="a_edge2_Node000001_Node000003"><a xlink:title=" ">
<path fill="none" stroke="#63b8ff" d="M149.42,-59.71C158.54,-50.59 168.75,-40.37 176.9,-32.22"/>
<polygon fill="#63b8ff" stroke="#63b8ff" points="147.1,-57.08 142.5,-66.62 152.05,-62.03 147.1,-57.08"/>
</a>
</g>
</g>
</g>
</svg>
