<?xml version="1.0" encoding="UTF-8" standalone="no"?>
<!DOCTYPE svg PUBLIC "-//W3C//DTD SVG 1.1//EN"
 "http://www.w3.org/Graphics/SVG/1.1/DTD/svg11.dtd">
<!-- Generated by graphviz version 14.0.0 (20250921.2048)
 -->
<!-- Title: BioFilterLib/src/filters/WaveletFilter.cpp Pages: 1 -->
<svg width="170pt" height="152pt"
 viewBox="0.00 0.00 170.00 152.00" xmlns="http://www.w3.org/2000/svg" xmlns:xlink="http://www.w3.org/1999/xlink">
<g id="graph0" class="graph" transform="scale(1 1) rotate(0) translate(4 148)">
<title>BioFilterLib/src/filters/WaveletFilter.cpp</title>
<!-- Node1 -->
<g id="Node000001" class="node">
<title>Node1</title>
<g id="a_Node000001"><a xlink:title="Implementación del filtro Wavelet optimizado para bioseñales.">
<polygon fill="#999999" stroke="#666666" points="139.75,-144 31.5,-144 31.5,-112 139.75,-112 139.75,-144"/>
<text xml:space="preserve" text-anchor="start" x="39.5" y="-130.5" font-family="Helvetica,sans-Serif" font-size="10.00">BioFilterLib/src/filters</text>
<text xml:space="preserve" text-anchor="middle" x="85.62" y="-118.5" font-family="Helvetica,sans-Serif" font-size="10.00">/WaveletFilter.cpp</text>
</a>
</g>
</g>
<!-- Node2 -->
<g id="Node000002" class="node">
<title>Node2</title>
<g id="a_Node000002"><a xlink:href="_wavelet_filter_8h.html" target="_top" xlink:title="Filtro Wavelet de banco de filtros optimizado para bioseñales usando CMSIS&#45;DSP.">
<polygon fill="white" stroke="#666666" points="81.25,-76 0,-76 0,-56 81.25,-56 81.25,-76"/>
<text xml:space="preserve" text-anchor="middle" x="40.62" y="-62.5" font-family="Helvetica,sans-Serif" font-size="10.00">WaveletFilter.h</text>
</a>
</g>
</g>
<!-- Node1&#45;&gt;Node2 -->
<g id="edge1_Node000001_Node000002" class="edge">
<title>Node1&#45;&gt;Node2</title>
<g id="a_edge1_Node000001_Node000002"><a xlink:title=" ">
<path fill="none" stroke="#63b8ff" d="M74.04,-111.55C68.05,-103.56 60.7,-93.76 54.42,-85.39"/>
<polygon fill="#63b8ff" stroke="#63b8ff" points="57.39,-83.52 48.59,-77.62 51.79,-87.72 57.39,-83.52"/>
</a>
</g>
</g>
<!-- Node4 -->
<g id="Node000004" class="node">
<title>Node4</title>
<g id="a_Node000004"><a xlink:href="_f_i_r_filter_8h.html" target="_top" xlink:title="Filtro FIR optimizado para bioseñales usando CMSIS&#45;DSP.">
<polygon fill="white" stroke="#666666" points="161.88,-76 99.38,-76 99.38,-56 161.88,-56 161.88,-76"/>
<text xml:space="preserve" text-anchor="middle" x="130.62" y="-62.5" font-family="Helvetica,sans-Serif" font-size="10.00">FIRFilter.h</text>
</a>
</g>
</g>
<!-- Node1&#45;&gt;Node4 -->
<g id="edge3_Node000001_Node000004" class="edge">
<title>Node1&#45;&gt;Node4</title>
<g id="a_edge3_Node000001_Node000004"><a xlink:title=" ">
<path fill="none" stroke="#63b8ff" d="M97.21,-111.55C103.2,-103.56 110.55,-93.76 116.83,-85.39"/>
<polygon fill="#63b8ff" stroke="#63b8ff" points="119.46,-87.72 122.66,-77.62 113.86,-83.52 119.46,-87.72"/>
</a>
</g>
</g>
<!-- Node3 -->
<g id="Node000003" class="node">
<title>Node3</title>
<g id="a_Node000003"><a xlink:title=" ">
<polygon fill="#e0e0e0" stroke="#999999" points="119.5,-20 51.75,-20 51.75,0 119.5,0 119.5,-20"/>
<text xml:space="preserve" text-anchor="middle" x="85.62" y="-6.5" font-family="Helvetica,sans-Serif" font-size="10.00">arm_math.h</text>
</a>
</g>
</g>
<!-- Node2&#45;&gt;Node3 -->
<g id="edge2_Node000002_Node000003" class="edge">
<title>Node2&#45;&gt;Node3</title>
<g id="a_edge2_Node000002_Node000003"><a xlink:title=" ">
<path fill="none" stroke="#63b8ff" d="M48.46,-55.59C54.59,-48.24 63.3,-37.8 70.74,-28.87"/>
<polygon fill="#63b8ff" stroke="#63b8ff" points="73.19,-31.38 76.91,-21.46 67.82,-26.9 73.19,-31.38"/>
</a>
</g>
</g>
<!-- Node4&#45;&gt;Node3 -->
<g id="edge4_Node000004_Node000003" class="edge">
<title>Node4&#45;&gt;Node3</title>
<g id="a_edge4_Node000004_Node000003"><a xlink:title=" ">
<path fill="none" stroke="#63b8ff" d="M122.79,-55.59C116.66,-48.24 107.95,-37.8 100.51,-28.87"/>
<polygon fill="#63b8ff" stroke="#63b8ff" points="103.43,-26.9 94.34,-21.46 98.06,-31.38 103.43,-26.9"/>
</a>
</g>
</g>
</g>
</svg>
