<?xml version="1.0" encoding="UTF-8" standalone="no"?>
<!DOCTYPE svg PUBLIC "-//W3C//DTD SVG 1.1//EN"
 "http://www.w3.org/Graphics/SVG/1.1/DTD/svg11.dtd">
<!-- Generated by graphviz version 14.0.0 (20250921.2048)
 -->
<!-- Title: BioFilterLib/src/utils/Waveforms.h Pages: 1 -->
<svg width="284pt" height="96pt"
 viewBox="0.00 0.00 284.00 96.00" xmlns="http://www.w3.org/2000/svg" xmlns:xlink="http://www.w3.org/1999/xlink">
<g id="graph0" class="graph" transform="scale(1 1) rotate(0) translate(4 92)">
<title>BioFilterLib/src/utils/Waveforms.h</title>
<!-- Node1 -->
<g id="Node000001" class="node">
<title>Node1</title>
<g id="a_Node000001"><a xlink:title="Señales de prueba para BioFilterLib.">
<polygon fill="#999999" stroke="#666666" points="183.75,-88 81.5,-88 81.5,-56 183.75,-56 183.75,-88"/>
<text xml:space="preserve" text-anchor="start" x="89.5" y="-74.5" font-family="Helvetica,sans-Serif" font-size="10.00">BioFilterLib/src/utils</text>
<text xml:space="preserve" text-anchor="middle" x="132.62" y="-62.5" font-family="Helvetica,sans-Serif" font-size="10.00">/Waveforms.h</text>
</a>
</g>
</g>
<!-- Node2 -->
<g id="Node000002" class="node">
<title>Node2</title>
<g id="a_Node000002"><a xlink:title=" ">
<polygon fill="#e0e0e0" stroke="#999999" points="57.25,-20 0,-20 0,0 57.25,0 57.25,-20"/>
<text xml:space="preserve" text-anchor="middle" x="28.62" y="-6.5" font-family="Helvetica,sans-Serif" font-size="10.00">Arduino.h</text>
</a>
</g>
</g>
<!-- Node1&#45;&gt;Node2 -->
<g id="edge1_Node000001_Node000002" class="edge">
<title>Node1&#45;&gt;Node2</title>
<g id="a_edge1_Node000001_Node000002"><a xlink:title=" ">
<path fill="none" stroke="#63b8ff" d="M105.84,-55.55C90.04,-46.43 70.15,-34.96 54.51,-25.93"/>
<polygon fill="#63b8ff" stroke="#63b8ff" points="56.65,-23.13 46.24,-21.16 53.16,-29.19 56.65,-23.13"/>
</a>
</g>
</g>
<!-- Node3 -->
<g id="Node000003" class="node">
<title>Node3</title>
<g id="a_Node000003"><a xlink:title=" ">
<polygon fill="#e0e0e0" stroke="#999999" points="123.75,-20 75.5,-20 75.5,0 123.75,0 123.75,-20"/>
<text xml:space="preserve" text-anchor="middle" x="99.62" y="-6.5" font-family="Helvetica,sans-Serif" font-size="10.00">stdint.h</text>
</a>
</g>
</g>
<!-- Node1&#45;&gt;Node3 -->
<g id="edge2_Node000001_Node000003" class="edge">
<title>Node1&#45;&gt;Node3</title>
<g id="a_edge2_Node000001_Node000003"><a xlink:title=" ">
<path fill="none" stroke="#63b8ff" d="M124.13,-55.55C119.93,-47.91 114.81,-38.61 110.34,-30.49"/>
<polygon fill="#63b8ff" stroke="#63b8ff" points="113.41,-28.81 105.53,-21.73 107.28,-32.18 113.41,-28.81"/>
</a>
</g>
</g>
<!-- Node4 -->
<g id="Node000004" class="node">
<title>Node4</title>
<g id="a_Node000004"><a xlink:title=" ">
<polygon fill="#e0e0e0" stroke="#999999" points="189.75,-20 141.5,-20 141.5,0 189.75,0 189.75,-20"/>
<text xml:space="preserve" text-anchor="middle" x="165.62" y="-6.5" font-family="Helvetica,sans-Serif" font-size="10.00">string.h</text>
</a>
</g>
</g>
<!-- Node1&#45;&gt;Node4 -->
<g id="edge3_Node000001_Node000004" class="edge">
<title>Node1&#45;&gt;Node4</title>
<g id="a_edge3_Node000001_Node000004"><a xlink:title=" ">
<path fill="none" stroke="#63b8ff" d="M141.12,-55.55C145.32,-47.91 150.44,-38.61 154.91,-30.49"/>
<polygon fill="#63b8ff" stroke="#63b8ff" points="157.97,-32.18 159.72,-21.73 151.84,-28.81 157.97,-32.18"/>
</a>
</g>
</g>
<!-- Node5 -->
<g id="Node000005" class="node">
<title>Node5</title>
<g id="a_Node000005"><a xlink:title=" ">
<polygon fill="#e0e0e0" stroke="#999999" points="275.5,-20 207.75,-20 207.75,0 275.5,0 275.5,-20"/>
<text xml:space="preserve" text-anchor="middle" x="241.62" y="-6.5" font-family="Helvetica,sans-Serif" font-size="10.00">arm_math.h</text>
</a>
</g>
</g>
<!-- Node1&#45;&gt;Node5 -->
<g id="edge4_Node000001_Node000005" class="edge">
<title>Node1&#45;&gt;Node5</title>
<g id="a_edge4_Node000001_Node000005"><a xlink:title=" ">
<path fill="none" stroke="#63b8ff" d="M160.7,-55.55C177.25,-46.43 198.11,-34.96 214.5,-25.93"/>
<polygon fill="#63b8ff" stroke="#63b8ff" points="216.14,-29.03 223.21,-21.14 212.76,-22.89 216.14,-29.03"/>
</a>
</g>
</g>
</g>
</svg>
