<?xml version="1.0" encoding="UTF-8" standalone="no"?>
<!DOCTYPE svg PUBLIC "-//W3C//DTD SVG 1.1//EN"
 "http://www.w3.org/Graphics/SVG/1.1/DTD/svg11.dtd">
<!-- Generated by graphviz version 14.0.0 (20250921.2048)
 -->
<!-- Title: arm_fir_f32 Pages: 1 -->
<svg width="393pt" height="66pt"
 viewBox="0.00 0.00 393.00 66.00" xmlns="http://www.w3.org/2000/svg" xmlns:xlink="http://www.w3.org/1999/xlink">
<g id="graph0" class="graph" transform="scale(1 1) rotate(0) translate(4 62)">
<title>arm_fir_f32</title>
<!-- Node1 -->
<g id="Node000001" class="node">
<title>Node1</title>
<g id="a_Node000001"><a xlink:title=" ">
<polygon fill="#999999" stroke="#666666" points="384.75,-39 320,-39 320,-19 384.75,-19 384.75,-39"/>
<text xml:space="preserve" text-anchor="middle" x="352.38" y="-25.5" font-family="Helvetica,sans-Serif" font-size="10.00">arm_fir_f32</text>
</a>
</g>
</g>
<!-- Node2 -->
<g id="Node000002" class="node">
<title>Node2</title>
<g id="a_Node000002"><a xlink:href="class_f_i_r_filter.html#af599ccbbe4f8f37b18061da9ff80d4b5" target="_top" xlink:title="Procesa un buffer completo de muestras usando el filtro FIR.">
<polygon fill="white" stroke="#666666" points="280.25,-58 160,-58 160,-38 280.25,-38 280.25,-58"/>
<text xml:space="preserve" text-anchor="middle" x="220.12" y="-44.5" font-family="Helvetica,sans-Serif" font-size="10.00">FIRFilter::processBuffer</text>
</a>
</g>
</g>
<!-- Node1&#45;&gt;Node2 -->
<g id="edge1_Node000001_Node000002" class="edge">
<title>Node1&#45;&gt;Node2</title>
<g id="a_edge1_Node000001_Node000002"><a xlink:title=" ">
<path fill="none" stroke="#63b8ff" d="M308.29,-35.29C299.43,-36.58 289.96,-37.96 280.64,-39.32"/>
<polygon fill="#63b8ff" stroke="#63b8ff" points="308.62,-38.77 318.01,-33.87 307.61,-31.85 308.62,-38.77"/>
</a>
</g>
</g>
<!-- Node4 -->
<g id="Node000004" class="node">
<title>Node4</title>
<g id="a_Node000004"><a xlink:href="class_f_i_r_filter.html#a2ec31d5f400abe1ffd69ad2d9f912e59" target="_top" xlink:title="Procesa una muestra individual usando el filtro FIR.">
<polygon fill="white" stroke="#666666" points="284,-20 156.25,-20 156.25,0 284,0 284,-20"/>
<text xml:space="preserve" text-anchor="middle" x="220.12" y="-6.5" font-family="Helvetica,sans-Serif" font-size="10.00">FIRFilter::processSample</text>
</a>
</g>
</g>
<!-- Node1&#45;&gt;Node4 -->
<g id="edge3_Node000001_Node000004" class="edge">
<title>Node1&#45;&gt;Node4</title>
<g id="a_edge3_Node000001_Node000004"><a xlink:title=" ">
<path fill="none" stroke="#63b8ff" d="M308.25,-22.71C300.54,-21.59 292.38,-20.39 284.25,-19.21"/>
<polygon fill="#63b8ff" stroke="#63b8ff" points="307.61,-26.15 318.01,-24.13 308.62,-19.23 307.61,-26.15"/>
</a>
</g>
</g>
<!-- Node3 -->
<g id="Node000003" class="node">
<title>Node3</title>
<g id="a_Node000003"><a xlink:href="utils__extended_8cpp.html#a2e952530f833e6013b2f16584a2491fe" target="_top" xlink:title="Prueba de rendimiento: mide velocidad de filtrado por buffer.">
<polygon fill="white" stroke="#666666" points="116.5,-58 3.75,-58 3.75,-38 116.5,-38 116.5,-58"/>
<text xml:space="preserve" text-anchor="middle" x="60.12" y="-44.5" font-family="Helvetica,sans-Serif" font-size="10.00">testFilterSpeed_Buffer</text>
</a>
</g>
</g>
<!-- Node2&#45;&gt;Node3 -->
<g id="edge2_Node000002_Node000003" class="edge">
<title>Node2&#45;&gt;Node3</title>
<g id="a_edge2_Node000002_Node000003"><a xlink:title=" ">
<path fill="none" stroke="#63b8ff" d="M148.46,-48C137.85,-48 127.05,-48 116.82,-48"/>
<polygon fill="#63b8ff" stroke="#63b8ff" points="148.33,-51.5 158.33,-48 148.33,-44.5 148.33,-51.5"/>
</a>
</g>
</g>
<!-- Node5 -->
<g id="Node000005" class="node">
<title>Node5</title>
<g id="a_Node000005"><a xlink:href="utils__extended_8cpp.html#a0be3755f52937416650eca7cfd5d70d4" target="_top" xlink:title="Prueba de rendimiento: mide velocidad de filtrado muestra por muestra.">
<polygon fill="white" stroke="#666666" points="120.25,-20 0,-20 0,0 120.25,0 120.25,-20"/>
<text xml:space="preserve" text-anchor="middle" x="60.12" y="-6.5" font-family="Helvetica,sans-Serif" font-size="10.00">testFilterSpeed_Sample</text>
</a>
</g>
</g>
<!-- Node4&#45;&gt;Node5 -->
<g id="edge4_Node000004_Node000005" class="edge">
<title>Node4&#45;&gt;Node5</title>
<g id="a_edge4_Node000004_Node000005"><a xlink:title=" ">
<path fill="none" stroke="#63b8ff" d="M144.52,-10C136.52,-10 128.45,-10 120.65,-10"/>
<polygon fill="#63b8ff" stroke="#63b8ff" points="144.26,-13.5 154.26,-10 144.26,-6.5 144.26,-13.5"/>
</a>
</g>
</g>
</g>
</svg>
