<?xml version="1.0" encoding="UTF-8" standalone="no"?>
<!DOCTYPE svg PUBLIC "-//W3C//DTD SVG 1.1//EN"
 "http://www.w3.org/Graphics/SVG/1.1/DTD/svg11.dtd">
<!-- Generated by graphviz version 14.0.0 (20250921.2048)
 -->
<!-- Title: BioFilterLib/src/utils/utils_extended.cpp Pages: 1 -->
<svg width="237pt" height="208pt"
 viewBox="0.00 0.00 237.00 208.00" xmlns="http://www.w3.org/2000/svg" xmlns:xlink="http://www.w3.org/1999/xlink">
<g id="graph0" class="graph" transform="scale(1 1) rotate(0) translate(4 204)">
<title>BioFilterLib/src/utils/utils_extended.cpp</title>
<!-- Node1 -->
<g id="Node000001" class="node">
<title>Node1</title>
<g id="a_Node000001"><a xlink:title=" ">
<polygon fill="#999999" stroke="#666666" points="151.75,-200 49.5,-200 49.5,-168 151.75,-168 151.75,-200"/>
<text xml:space="preserve" text-anchor="start" x="57.5" y="-186.5" font-family="Helvetica,sans-Serif" font-size="10.00">BioFilterLib/src/utils</text>
<text xml:space="preserve" text-anchor="middle" x="100.62" y="-174.5" font-family="Helvetica,sans-Serif" font-size="10.00">/utils_extended.cpp</text>
</a>
</g>
</g>
<!-- Node2 -->
<g id="Node000002" class="node">
<title>Node2</title>
<g id="a_Node000002"><a xlink:href="utils__extended_8h.html" target="_top" xlink:title=" ">
<polygon fill="white" stroke="#666666" points="144.25,-132 57,-132 57,-112 144.25,-112 144.25,-132"/>
<text xml:space="preserve" text-anchor="middle" x="100.62" y="-118.5" font-family="Helvetica,sans-Serif" font-size="10.00">utils_extended.h</text>
</a>
</g>
</g>
<!-- Node1&#45;&gt;Node2 -->
<g id="edge1_Node000001_Node000002" class="edge">
<title>Node1&#45;&gt;Node2</title>
<g id="a_edge1_Node000001_Node000002"><a xlink:title=" ">
<path fill="none" stroke="#63b8ff" d="M100.62,-167.55C100.62,-160.34 100.62,-151.66 100.62,-143.88"/>
<polygon fill="#63b8ff" stroke="#63b8ff" points="104.13,-143.92 100.63,-133.92 97.13,-143.92 104.13,-143.92"/>
</a>
</g>
</g>
<!-- Node3 -->
<g id="Node000003" class="node">
<title>Node3</title>
<g id="a_Node000003"><a xlink:title=" ">
<polygon fill="#e0e0e0" stroke="#999999" points="57.25,-76 0,-76 0,-56 57.25,-56 57.25,-76"/>
<text xml:space="preserve" text-anchor="middle" x="28.62" y="-62.5" font-family="Helvetica,sans-Serif" font-size="10.00">Arduino.h</text>
</a>
</g>
</g>
<!-- Node1&#45;&gt;Node3 -->
<g id="edge8_Node000001_Node000003" class="edge">
<title>Node1&#45;&gt;Node3</title>
<g id="a_edge8_Node000001_Node000003"><a xlink:title=" ">
<path fill="none" stroke="#63b8ff" d="M79.95,-167.55C68.93,-158.33 55.96,-145.76 47.62,-132 39.41,-118.43 34.58,-101.12 31.84,-87.77"/>
<polygon fill="#63b8ff" stroke="#63b8ff" points="35.29,-87.16 30.09,-77.93 28.4,-88.39 35.29,-87.16"/>
</a>
</g>
</g>
<!-- Node6 -->
<g id="Node000006" class="node">
<title>Node6</title>
<g id="a_Node000006"><a xlink:href="utils_8h.html" target="_top" xlink:title=" ">
<polygon fill="white" stroke="#666666" points="228.75,-132 186.5,-132 186.5,-112 228.75,-112 228.75,-132"/>
<text xml:space="preserve" text-anchor="middle" x="207.62" y="-118.5" font-family="Helvetica,sans-Serif" font-size="10.00">utils.h</text>
</a>
</g>
</g>
<!-- Node1&#45;&gt;Node6 -->
<g id="edge6_Node000001_Node000006" class="edge">
<title>Node1&#45;&gt;Node6</title>
<g id="a_edge6_Node000001_Node000006"><a xlink:title=" ">
<path fill="none" stroke="#63b8ff" d="M128.18,-167.55C144.43,-158.43 164.9,-146.96 180.99,-137.93"/>
<polygon fill="#63b8ff" stroke="#63b8ff" points="182.52,-141.09 189.53,-133.15 179.09,-134.99 182.52,-141.09"/>
</a>
</g>
</g>
<!-- Node2&#45;&gt;Node3 -->
<g id="edge2_Node000002_Node000003" class="edge">
<title>Node2&#45;&gt;Node3</title>
<g id="a_edge2_Node000002_Node000003"><a xlink:title=" ">
<path fill="none" stroke="#63b8ff" d="M88.08,-111.59C77.66,-103.77 62.58,-92.46 50.21,-83.19"/>
<polygon fill="#63b8ff" stroke="#63b8ff" points="52.33,-80.41 42.23,-77.21 48.13,-86.01 52.33,-80.41"/>
</a>
</g>
</g>
<!-- Node4 -->
<g id="Node000004" class="node">
<title>Node4</title>
<g id="a_Node000004"><a xlink:title=" ">
<polygon fill="#e0e0e0" stroke="#999999" points="192.5,-20 124.75,-20 124.75,0 192.5,0 192.5,-20"/>
<text xml:space="preserve" text-anchor="middle" x="158.62" y="-6.5" font-family="Helvetica,sans-Serif" font-size="10.00">arm_math.h</text>
</a>
</g>
</g>
<!-- Node2&#45;&gt;Node4 -->
<g id="edge3_Node000002_Node000004" class="edge">
<title>Node2&#45;&gt;Node4</title>
<g id="a_edge3_Node000002_Node000004"><a xlink:title=" ">
<path fill="none" stroke="#63b8ff" d="M98.98,-111.57C97.15,-98.37 95.53,-73.95 104.62,-56 110.6,-44.2 121.19,-34.33 131.42,-26.86"/>
<polygon fill="#63b8ff" stroke="#63b8ff" points="133.35,-29.79 139.7,-21.31 129.45,-23.98 133.35,-29.79"/>
</a>
</g>
</g>
<!-- Node5 -->
<g id="Node000005" class="node">
<title>Node5</title>
<g id="a_Node000005"><a xlink:href="_f_i_r_filter_8h.html" target="_top" xlink:title="Filtro FIR optimizado para bioseñales usando CMSIS&#45;DSP.">
<polygon fill="white" stroke="#666666" points="203.38,-76 113.88,-76 113.88,-56 203.38,-56 203.38,-76"/>
<text xml:space="preserve" text-anchor="middle" x="158.62" y="-62.5" font-family="Helvetica,sans-Serif" font-size="10.00">filters/FIRFilter.h</text>
</a>
</g>
</g>
<!-- Node2&#45;&gt;Node5 -->
<g id="edge4_Node000002_Node000005" class="edge">
<title>Node2&#45;&gt;Node5</title>
<g id="a_edge4_Node000002_Node000005"><a xlink:title=" ">
<path fill="none" stroke="#63b8ff" d="M110.73,-111.59C118.88,-104.01 130.56,-93.13 140.34,-84.02"/>
<polygon fill="#63b8ff" stroke="#63b8ff" points="142.6,-86.71 147.53,-77.33 137.83,-81.58 142.6,-86.71"/>
</a>
</g>
</g>
<!-- Node5&#45;&gt;Node4 -->
<g id="edge5_Node000005_Node000004" class="edge">
<title>Node5&#45;&gt;Node4</title>
<g id="a_edge5_Node000005_Node000004"><a xlink:title=" ">
<path fill="none" stroke="#63b8ff" d="M158.62,-55.59C158.62,-49.01 158.62,-39.96 158.62,-31.73"/>
<polygon fill="#63b8ff" stroke="#63b8ff" points="162.13,-31.81 158.63,-21.81 155.13,-31.81 162.13,-31.81"/>
</a>
</g>
</g>
<!-- Node6&#45;&gt;Node4 -->
<g id="edge7_Node000006_Node000004" class="edge">
<title>Node6&#45;&gt;Node4</title>
<g id="a_edge7_Node000006_Node000004"><a xlink:title=" ">
<path fill="none" stroke="#63b8ff" d="M211.11,-111.66C215.41,-98.54 221.17,-74.24 212.62,-56 207.05,-44.11 196.63,-34.26 186.41,-26.84"/>
<polygon fill="#63b8ff" stroke="#63b8ff" points="188.37,-23.94 178.1,-21.32 184.49,-29.77 188.37,-23.94"/>
</a>
</g>
</g>
</g>
</svg>
