<?xml version="1.0" encoding="UTF-8" standalone="no"?>
<!DOCTYPE svg PUBLIC "-//W3C//DTD SVG 1.1//EN"
 "http://www.w3.org/Graphics/SVG/1.1/DTD/svg11.dtd">
<!-- Generated by graphviz version 14.0.0 (20250921.2048)
 -->
<!-- Title: testFilterSpeed_Buffer Pages: 1 -->
<svg width="378pt" height="66pt"
 viewBox="0.00 0.00 378.00 66.00" xmlns="http://www.w3.org/2000/svg" xmlns:xlink="http://www.w3.org/1999/xlink">
<g id="graph0" class="graph" transform="scale(1 1) rotate(0) translate(4 62)">
<title>testFilterSpeed_Buffer</title>
<!-- Node1 -->
<g id="Node000001" class="node">
<title>Node1</title>
<g id="a_Node000001"><a xlink:title="Prueba de rendimiento: mide velocidad de filtrado por buffer.">
<polygon fill="#999999" stroke="#666666" points="112.75,-39 0,-39 0,-19 112.75,-19 112.75,-39"/>
<text xml:space="preserve" text-anchor="middle" x="56.38" y="-25.5" font-family="Helvetica,sans-Serif" font-size="10.00">testFilterSpeed_Buffer</text>
</a>
</g>
</g>
<!-- Node2 -->
<g id="Node000002" class="node">
<title>Node2</title>
<g id="a_Node000002"><a xlink:href="utils__extended_8cpp.html#aa80e3e2be57e015fe4a241937be9cc96" target="_top" xlink:title="Obtiene la RAM libre disponible en el Arduino Due.">
<polygon fill="white" stroke="#666666" points="244.62,-58 173.12,-58 173.12,-38 244.62,-38 244.62,-58"/>
<text xml:space="preserve" text-anchor="middle" x="208.88" y="-44.5" font-family="Helvetica,sans-Serif" font-size="10.00">getFreeRAM</text>
</a>
</g>
</g>
<!-- Node1&#45;&gt;Node2 -->
<g id="edge1_Node000001_Node000002" class="edge">
<title>Node1&#45;&gt;Node2</title>
<g id="a_edge1_Node000001_Node000002"><a xlink:title=" ">
<path fill="none" stroke="#63b8ff" d="M112.99,-36.02C129,-38.04 146.29,-40.23 161.67,-42.17"/>
<polygon fill="#63b8ff" stroke="#63b8ff" points="161.14,-45.63 171.5,-43.41 162.02,-38.68 161.14,-45.63"/>
</a>
</g>
</g>
<!-- Node4 -->
<g id="Node000004" class="node">
<title>Node4</title>
<g id="a_Node000004"><a xlink:href="class_f_i_r_filter.html#af599ccbbe4f8f37b18061da9ff80d4b5" target="_top" xlink:title="Procesa un buffer completo de muestras usando el filtro FIR.">
<polygon fill="white" stroke="#666666" points="269,-20 148.75,-20 148.75,0 269,0 269,-20"/>
<text xml:space="preserve" text-anchor="middle" x="208.88" y="-6.5" font-family="Helvetica,sans-Serif" font-size="10.00">FIRFilter::processBuffer</text>
</a>
</g>
</g>
<!-- Node1&#45;&gt;Node4 -->
<g id="edge3_Node000001_Node000004" class="edge">
<title>Node1&#45;&gt;Node4</title>
<g id="a_edge3_Node000001_Node000004"><a xlink:title=" ">
<path fill="none" stroke="#63b8ff" d="M112.99,-21.98C120.84,-20.99 129,-19.96 137.09,-18.94"/>
<polygon fill="#63b8ff" stroke="#63b8ff" points="137.46,-22.42 146.95,-17.69 136.59,-15.47 137.46,-22.42"/>
</a>
</g>
</g>
<!-- Node3 -->
<g id="Node000003" class="node">
<title>Node3</title>
<g id="a_Node000003"><a xlink:href="utils__extended_8cpp.html#ae6727605038d56c99955e14284be21ef" target="_top" xlink:title=" ">
<polygon fill="white" stroke="#666666" points="354.75,-58 320,-58 320,-38 354.75,-38 354.75,-58"/>
<text xml:space="preserve" text-anchor="middle" x="337.38" y="-44.5" font-family="Helvetica,sans-Serif" font-size="10.00">sbrk</text>
</a>
</g>
</g>
<!-- Node2&#45;&gt;Node3 -->
<g id="edge2_Node000002_Node000003" class="edge">
<title>Node2&#45;&gt;Node3</title>
<g id="a_edge2_Node000002_Node000003"><a xlink:title=" ">
<path fill="none" stroke="#63b8ff" d="M245.11,-48C265.14,-48 289.87,-48 308.53,-48"/>
<polygon fill="#63b8ff" stroke="#63b8ff" points="308.29,-51.5 318.29,-48 308.29,-44.5 308.29,-51.5"/>
</a>
</g>
</g>
<!-- Node5 -->
<g id="Node000005" class="node">
<title>Node5</title>
<g id="a_Node000005"><a xlink:href="group___f_i_r.html#gae8fb334ea67eb6ecbd31824ddc14cd6a" target="_top" xlink:title=" ">
<polygon fill="white" stroke="#666666" points="369.75,-20 305,-20 305,0 369.75,0 369.75,-20"/>
<text xml:space="preserve" text-anchor="middle" x="337.38" y="-6.5" font-family="Helvetica,sans-Serif" font-size="10.00">arm_fir_f32</text>
</a>
</g>
</g>
<!-- Node4&#45;&gt;Node5 -->
<g id="edge4_Node000004_Node000005" class="edge">
<title>Node4&#45;&gt;Node5</title>
<g id="a_edge4_Node000004_Node000005"><a xlink:title=" ">
<path fill="none" stroke="#63b8ff" d="M269.42,-10C277.51,-10 285.67,-10 293.39,-10"/>
<polygon fill="#63b8ff" stroke="#63b8ff" points="293.17,-13.5 303.17,-10 293.17,-6.5 293.17,-13.5"/>
</a>
</g>
</g>
</g>
</svg>
