<?xml version="1.0" encoding="UTF-8" standalone="no"?>
<!DOCTYPE svg PUBLIC "-//W3C//DTD SVG 1.1//EN"
 "http://www.w3.org/Graphics/SVG/1.1/DTD/svg11.dtd">
<!-- Generated by graphviz version 14.0.0 (20250921.2048)
 -->
<!-- Title: testFilterSpeed_Sample Pages: 1 -->
<svg width="393pt" height="66pt"
 viewBox="0.00 0.00 393.00 66.00" xmlns="http://www.w3.org/2000/svg" xmlns:xlink="http://www.w3.org/1999/xlink">
<g id="graph0" class="graph" transform="scale(1 1) rotate(0) translate(4 62)">
<title>testFilterSpeed_Sample</title>
<!-- Node1 -->
<g id="Node000001" class="node">
<title>Node1</title>
<g id="a_Node000001"><a xlink:title="Prueba de rendimiento: mide velocidad de filtrado muestra por muestra.">
<polygon fill="#999999" stroke="#666666" points="120.25,-39 0,-39 0,-19 120.25,-19 120.25,-39"/>
<text xml:space="preserve" text-anchor="middle" x="60.12" y="-25.5" font-family="Helvetica,sans-Serif" font-size="10.00">testFilterSpeed_Sample</text>
</a>
</g>
</g>
<!-- Node2 -->
<g id="Node000002" class="node">
<title>Node2</title>
<g id="a_Node000002"><a xlink:href="utils__extended_8cpp.html#aa80e3e2be57e015fe4a241937be9cc96" target="_top" xlink:title="Obtiene la RAM libre disponible en el Arduino Due.">
<polygon fill="white" stroke="#666666" points="255.88,-58 184.38,-58 184.38,-38 255.88,-38 255.88,-58"/>
<text xml:space="preserve" text-anchor="middle" x="220.12" y="-44.5" font-family="Helvetica,sans-Serif" font-size="10.00">getFreeRAM</text>
</a>
</g>
</g>
<!-- Node1&#45;&gt;Node2 -->
<g id="edge1_Node000001_Node000002" class="edge">
<title>Node1&#45;&gt;Node2</title>
<g id="a_edge1_Node000001_Node000002"><a xlink:title=" ">
<path fill="none" stroke="#63b8ff" d="M120.41,-36.13C137.91,-38.23 156.79,-40.5 173.31,-42.49"/>
<polygon fill="#63b8ff" stroke="#63b8ff" points="172.47,-45.91 182.82,-43.63 173.31,-38.96 172.47,-45.91"/>
</a>
</g>
</g>
<!-- Node4 -->
<g id="Node000004" class="node">
<title>Node4</title>
<g id="a_Node000004"><a xlink:href="class_f_i_r_filter.html#a2ec31d5f400abe1ffd69ad2d9f912e59" target="_top" xlink:title="Procesa una muestra individual usando el filtro FIR.">
<polygon fill="white" stroke="#666666" points="284,-20 156.25,-20 156.25,0 284,0 284,-20"/>
<text xml:space="preserve" text-anchor="middle" x="220.12" y="-6.5" font-family="Helvetica,sans-Serif" font-size="10.00">FIRFilter::processSample</text>
</a>
</g>
</g>
<!-- Node1&#45;&gt;Node4 -->
<g id="edge3_Node000001_Node000004" class="edge">
<title>Node1&#45;&gt;Node4</title>
<g id="a_edge3_Node000001_Node000004"><a xlink:title=" ">
<path fill="none" stroke="#63b8ff" d="M120.41,-21.87C128.26,-20.93 136.4,-19.95 144.47,-18.98"/>
<polygon fill="#63b8ff" stroke="#63b8ff" points="144.8,-22.46 154.31,-17.79 143.96,-15.51 144.8,-22.46"/>
</a>
</g>
</g>
<!-- Node3 -->
<g id="Node000003" class="node">
<title>Node3</title>
<g id="a_Node000003"><a xlink:href="utils__extended_8cpp.html#ae6727605038d56c99955e14284be21ef" target="_top" xlink:title=" ">
<polygon fill="white" stroke="#666666" points="369.75,-58 335,-58 335,-38 369.75,-38 369.75,-58"/>
<text xml:space="preserve" text-anchor="middle" x="352.38" y="-44.5" font-family="Helvetica,sans-Serif" font-size="10.00">sbrk</text>
</a>
</g>
</g>
<!-- Node2&#45;&gt;Node3 -->
<g id="edge2_Node000002_Node000003" class="edge">
<title>Node2&#45;&gt;Node3</title>
<g id="a_edge2_Node000002_Node000003"><a xlink:title=" ">
<path fill="none" stroke="#63b8ff" d="M256.37,-48C277.36,-48 303.64,-48 323.23,-48"/>
<polygon fill="#63b8ff" stroke="#63b8ff" points="323.23,-51.5 333.23,-48 323.23,-44.5 323.23,-51.5"/>
</a>
</g>
</g>
<!-- Node5 -->
<g id="Node000005" class="node">
<title>Node5</title>
<g id="a_Node000005"><a xlink:href="group___f_i_r.html#gae8fb334ea67eb6ecbd31824ddc14cd6a" target="_top" xlink:title=" ">
<polygon fill="white" stroke="#666666" points="384.75,-20 320,-20 320,0 384.75,0 384.75,-20"/>
<text xml:space="preserve" text-anchor="middle" x="352.38" y="-6.5" font-family="Helvetica,sans-Serif" font-size="10.00">arm_fir_f32</text>
</a>
</g>
</g>
<!-- Node4&#45;&gt;Node5 -->
<g id="edge4_Node000004_Node000005" class="edge">
<title>Node4&#45;&gt;Node5</title>
<g id="a_edge4_Node000004_Node000005"><a xlink:title=" ">
<path fill="none" stroke="#63b8ff" d="M284.34,-10C292.52,-10 300.74,-10 308.48,-10"/>
<polygon fill="#63b8ff" stroke="#63b8ff" points="308.28,-13.5 318.28,-10 308.28,-6.5 308.28,-13.5"/>
</a>
</g>
</g>
</g>
</svg>
