<?xml version="1.0" encoding="UTF-8" standalone="no"?>
<!DOCTYPE svg PUBLIC "-//W3C//DTD SVG 1.1//EN"
 "http://www.w3.org/Graphics/SVG/1.1/DTD/svg11.dtd">
<!-- Generated by graphviz version 14.0.0 (20250921.2048)
 -->
<!-- Title: testMemoryUsage Pages: 1 -->
<svg width="283pt" height="28pt"
 viewBox="0.00 0.00 283.00 28.00" xmlns="http://www.w3.org/2000/svg" xmlns:xlink="http://www.w3.org/1999/xlink">
<g id="graph0" class="graph" transform="scale(1 1) rotate(0) translate(4 24)">
<title>testMemoryUsage</title>
<!-- Node1 -->
<g id="Node000001" class="node">
<title>Node1</title>
<g id="a_Node000001"><a xlink:title="Prueba de consumo de memoria: reporta uso de RAM antes y después.">
<polygon fill="#999999" stroke="#666666" points="96.25,-20 0,-20 0,0 96.25,0 96.25,-20"/>
<text xml:space="preserve" text-anchor="middle" x="48.12" y="-6.5" font-family="Helvetica,sans-Serif" font-size="10.00">testMemoryUsage</text>
</a>
</g>
</g>
<!-- Node2 -->
<g id="Node000002" class="node">
<title>Node2</title>
<g id="a_Node000002"><a xlink:href="utils__extended_8cpp.html#aa80e3e2be57e015fe4a241937be9cc96" target="_top" xlink:title="Obtiene la RAM libre disponible en el Arduino Due.">
<polygon fill="white" stroke="#666666" points="203.75,-20 132.25,-20 132.25,0 203.75,0 203.75,-20"/>
<text xml:space="preserve" text-anchor="middle" x="168" y="-6.5" font-family="Helvetica,sans-Serif" font-size="10.00">getFreeRAM</text>
</a>
</g>
</g>
<!-- Node1&#45;&gt;Node2 -->
<g id="edge1_Node000001_Node000002" class="edge">
<title>Node1&#45;&gt;Node2</title>
<g id="a_edge1_Node000001_Node000002"><a xlink:title=" ">
<path fill="none" stroke="#63b8ff" d="M96.73,-10C104.54,-10 112.62,-10 120.4,-10"/>
<polygon fill="#63b8ff" stroke="#63b8ff" points="120.39,-13.5 130.39,-10 120.39,-6.5 120.39,-13.5"/>
</a>
</g>
</g>
<!-- Node3 -->
<g id="Node000003" class="node">
<title>Node3</title>
<g id="a_Node000003"><a xlink:href="utils__extended_8cpp.html#ae6727605038d56c99955e14284be21ef" target="_top" xlink:title=" ">
<polygon fill="white" stroke="#666666" points="274.5,-20 239.75,-20 239.75,0 274.5,0 274.5,-20"/>
<text xml:space="preserve" text-anchor="middle" x="257.12" y="-6.5" font-family="Helvetica,sans-Serif" font-size="10.00">sbrk</text>
</a>
</g>
</g>
<!-- Node2&#45;&gt;Node3 -->
<g id="edge2_Node000002_Node000003" class="edge">
<title>Node2&#45;&gt;Node3</title>
<g id="a_edge2_Node000002_Node000003"><a xlink:title=" ">
<path fill="none" stroke="#63b8ff" d="M204.19,-10C212.24,-10 220.7,-10 228.39,-10"/>
<polygon fill="#63b8ff" stroke="#63b8ff" points="228.17,-13.5 238.17,-10 228.17,-6.5 228.17,-13.5"/>
</a>
</g>
</g>
</g>
</svg>
