<?xml version="1.0" encoding="UTF-8" standalone="no"?>
<!DOCTYPE svg PUBLIC "-//W3C//DTD SVG 1.1//EN"
 "http://www.w3.org/Graphics/SVG/1.1/DTD/svg11.dtd">
<!-- Generated by graphviz version 14.0.0 (20250921.2048)
 -->
<!-- Title: testFilterQuality Pages: 1 -->
<svg width="231pt" height="142pt"
 viewBox="0.00 0.00 231.00 142.00" xmlns="http://www.w3.org/2000/svg" xmlns:xlink="http://www.w3.org/1999/xlink">
<g id="graph0" class="graph" transform="scale(1 1) rotate(0) translate(4 138)">
<title>testFilterQuality</title>
<!-- Node1 -->
<g id="Node000001" class="node">
<title>Node1</title>
<g id="a_Node000001"><a xlink:title="Prueba de calidad: evalúa la efectividad del filtrado.">
<polygon fill="#999999" stroke="#666666" points="85,-77 0,-77 0,-57 85,-57 85,-77"/>
<text xml:space="preserve" text-anchor="middle" x="42.5" y="-63.5" font-family="Helvetica,sans-Serif" font-size="10.00">testFilterQuality</text>
</a>
</g>
</g>
<!-- Node2 -->
<g id="Node000002" class="node">
<title>Node2</title>
<g id="a_Node000002"><a xlink:href="utils_8cpp.html#a1b738c7b67034c83238047d8e1bdbce6" target="_top" xlink:title="Calcula el coeficiente de correlación de Pearson entre dos señales.">
<polygon fill="white" stroke="#666666" points="223.25,-134 121,-134 121,-114 223.25,-114 223.25,-134"/>
<text xml:space="preserve" text-anchor="middle" x="172.12" y="-120.5" font-family="Helvetica,sans-Serif" font-size="10.00">calculateCorrelation</text>
</a>
</g>
</g>
<!-- Node1&#45;&gt;Node2 -->
<g id="edge1_Node000001_Node000002" class="edge">
<title>Node1&#45;&gt;Node2</title>
<g id="a_edge1_Node000001_Node000002"><a xlink:title=" ">
<path fill="none" stroke="#63b8ff" d="M63.33,-77.36C78.85,-85.31 101.06,-96.36 121,-105 124.37,-106.46 127.9,-107.93 131.45,-109.35"/>
<polygon fill="#63b8ff" stroke="#63b8ff" points="130.05,-112.57 140.64,-112.95 132.6,-106.05 130.05,-112.57"/>
</a>
</g>
</g>
<!-- Node3 -->
<g id="Node000003" class="node">
<title>Node3</title>
<g id="a_Node000003"><a xlink:href="utils_8cpp.html#ac36f58b46eb5fad45f9f1cb6b380c0e0" target="_top" xlink:title="Calcula el error cuadrático medio (MSE) entre dos señales.">
<polygon fill="white" stroke="#666666" points="210.5,-96 133.75,-96 133.75,-76 210.5,-76 210.5,-96"/>
<text xml:space="preserve" text-anchor="middle" x="172.12" y="-82.5" font-family="Helvetica,sans-Serif" font-size="10.00">calculateMSE</text>
</a>
</g>
</g>
<!-- Node1&#45;&gt;Node3 -->
<g id="edge2_Node000001_Node000003" class="edge">
<title>Node1&#45;&gt;Node3</title>
<g id="a_edge2_Node000001_Node000003"><a xlink:title=" ">
<path fill="none" stroke="#63b8ff" d="M85.29,-73.22C97.08,-74.98 110.01,-76.9 122.18,-78.71"/>
<polygon fill="#63b8ff" stroke="#63b8ff" points="121.65,-82.17 132.05,-80.18 122.68,-75.25 121.65,-82.17"/>
</a>
</g>
</g>
<!-- Node4 -->
<g id="Node000004" class="node">
<title>Node4</title>
<g id="a_Node000004"><a xlink:href="utils_8cpp.html#ac460c4cb195894fcb30fcb0f2eb5b92d" target="_top" xlink:title="Calcula el valor cuadrático medio (RMS) de una señal.">
<polygon fill="white" stroke="#666666" points="210.88,-58 133.38,-58 133.38,-38 210.88,-38 210.88,-58"/>
<text xml:space="preserve" text-anchor="middle" x="172.12" y="-44.5" font-family="Helvetica,sans-Serif" font-size="10.00">calculateRMS</text>
</a>
</g>
</g>
<!-- Node1&#45;&gt;Node4 -->
<g id="edge3_Node000001_Node000004" class="edge">
<title>Node1&#45;&gt;Node4</title>
<g id="a_edge3_Node000001_Node000004"><a xlink:title=" ">
<path fill="none" stroke="#63b8ff" d="M85.29,-60.78C96.97,-59.04 109.77,-57.13 121.84,-55.34"/>
<polygon fill="#63b8ff" stroke="#63b8ff" points="122.25,-58.81 131.63,-53.88 121.22,-51.89 122.25,-58.81"/>
</a>
</g>
</g>
<!-- Node5 -->
<g id="Node000005" class="node">
<title>Node5</title>
<g id="a_Node000005"><a xlink:href="utils_8cpp.html#a1f0c25b54d7f1c9f5894d83c92b5624a" target="_top" xlink:title="Calcula la relación señal/ruido (SNR) en decibelios.">
<polygon fill="white" stroke="#666666" points="210.5,-20 133.75,-20 133.75,0 210.5,0 210.5,-20"/>
<text xml:space="preserve" text-anchor="middle" x="172.12" y="-6.5" font-family="Helvetica,sans-Serif" font-size="10.00">calculateSNR</text>
</a>
</g>
</g>
<!-- Node1&#45;&gt;Node5 -->
<g id="edge4_Node000001_Node000005" class="edge">
<title>Node1&#45;&gt;Node5</title>
<g id="a_edge4_Node000001_Node000005"><a xlink:title=" ">
<path fill="none" stroke="#63b8ff" d="M63.33,-56.64C78.85,-48.69 101.06,-37.64 121,-29 124.37,-27.54 127.9,-26.07 131.45,-24.65"/>
<polygon fill="#63b8ff" stroke="#63b8ff" points="132.6,-27.95 140.64,-21.05 130.05,-21.43 132.6,-27.95"/>
</a>
</g>
</g>
</g>
</svg>
