<?xml version="1.0" encoding="UTF-8" standalone="no"?>
<!DOCTYPE svg PUBLIC "-//W3C//DTD SVG 1.1//EN"
 "http://www.w3.org/Graphics/SVG/1.1/DTD/svg11.dtd">
<!-- Generated by graphviz version 14.0.0 (20250921.2048)
 -->
<!-- Title: sbrk Pages: 1 -->
<svg width="307pt" height="104pt"
 viewBox="0.00 0.00 307.00 104.00" xmlns="http://www.w3.org/2000/svg" xmlns:xlink="http://www.w3.org/1999/xlink">
<g id="graph0" class="graph" transform="scale(1 1) rotate(0) translate(4 100)">
<title>sbrk</title>
<!-- Node1 -->
<g id="Node000001" class="node">
<title>Node1</title>
<g id="a_Node000001"><a xlink:title=" ">
<polygon fill="#999999" stroke="#666666" points="298.5,-58 263.75,-58 263.75,-38 298.5,-38 298.5,-58"/>
<text xml:space="preserve" text-anchor="middle" x="281.12" y="-44.5" font-family="Helvetica,sans-Serif" font-size="10.00">sbrk</text>
</a>
</g>
</g>
<!-- Node2 -->
<g id="Node000002" class="node">
<title>Node2</title>
<g id="a_Node000002"><a xlink:href="utils__extended_8cpp.html#aa80e3e2be57e015fe4a241937be9cc96" target="_top" xlink:title="Obtiene la RAM libre disponible en el Arduino Due.">
<polygon fill="white" stroke="#666666" points="227.75,-58 156.25,-58 156.25,-38 227.75,-38 227.75,-58"/>
<text xml:space="preserve" text-anchor="middle" x="192" y="-44.5" font-family="Helvetica,sans-Serif" font-size="10.00">getFreeRAM</text>
</a>
</g>
</g>
<!-- Node1&#45;&gt;Node2 -->
<g id="edge1_Node000001_Node000002" class="edge">
<title>Node1&#45;&gt;Node2</title>
<g id="a_edge1_Node000001_Node000002"><a xlink:title=" ">
<path fill="none" stroke="#63b8ff" d="M251.83,-48C244.27,-48 236.01,-48 228.14,-48"/>
<polygon fill="#63b8ff" stroke="#63b8ff" points="251.81,-51.5 261.81,-48 251.81,-44.5 251.81,-51.5"/>
</a>
</g>
</g>
<!-- Node3 -->
<g id="Node000003" class="node">
<title>Node3</title>
<g id="a_Node000003"><a xlink:href="utils__extended_8cpp.html#a2e952530f833e6013b2f16584a2491fe" target="_top" xlink:title="Prueba de rendimiento: mide velocidad de filtrado por buffer.">
<polygon fill="white" stroke="#666666" points="116.5,-96 3.75,-96 3.75,-76 116.5,-76 116.5,-96"/>
<text xml:space="preserve" text-anchor="middle" x="60.12" y="-82.5" font-family="Helvetica,sans-Serif" font-size="10.00">testFilterSpeed_Buffer</text>
</a>
</g>
</g>
<!-- Node2&#45;&gt;Node3 -->
<g id="edge2_Node000002_Node000003" class="edge">
<title>Node2&#45;&gt;Node3</title>
<g id="a_edge2_Node000002_Node000003"><a xlink:title=" ">
<path fill="none" stroke="#63b8ff" d="M145.17,-61.41C129.27,-66.06 111.7,-71.2 96.75,-75.58"/>
<polygon fill="#63b8ff" stroke="#63b8ff" points="145.79,-64.88 154.4,-58.71 143.82,-58.16 145.79,-64.88"/>
</a>
</g>
</g>
<!-- Node4 -->
<g id="Node000004" class="node">
<title>Node4</title>
<g id="a_Node000004"><a xlink:href="utils__extended_8cpp.html#a0be3755f52937416650eca7cfd5d70d4" target="_top" xlink:title="Prueba de rendimiento: mide velocidad de filtrado muestra por muestra.">
<polygon fill="white" stroke="#666666" points="120.25,-58 0,-58 0,-38 120.25,-38 120.25,-58"/>
<text xml:space="preserve" text-anchor="middle" x="60.12" y="-44.5" font-family="Helvetica,sans-Serif" font-size="10.00">testFilterSpeed_Sample</text>
</a>
</g>
</g>
<!-- Node2&#45;&gt;Node4 -->
<g id="edge3_Node000002_Node000004" class="edge">
<title>Node2&#45;&gt;Node4</title>
<g id="a_edge3_Node000002_Node000004"><a xlink:title=" ">
<path fill="none" stroke="#63b8ff" d="M144.38,-48C136.57,-48 128.39,-48 120.32,-48"/>
<polygon fill="#63b8ff" stroke="#63b8ff" points="144.34,-51.5 154.34,-48 144.34,-44.5 144.34,-51.5"/>
</a>
</g>
</g>
<!-- Node5 -->
<g id="Node000005" class="node">
<title>Node5</title>
<g id="a_Node000005"><a xlink:href="utils__extended_8cpp.html#a30c5740388a9bae35218206e568f8327" target="_top" xlink:title="Prueba de consumo de memoria: reporta uso de RAM antes y después.">
<polygon fill="white" stroke="#666666" points="108.25,-20 12,-20 12,0 108.25,0 108.25,-20"/>
<text xml:space="preserve" text-anchor="middle" x="60.12" y="-6.5" font-family="Helvetica,sans-Serif" font-size="10.00">testMemoryUsage</text>
</a>
</g>
</g>
<!-- Node2&#45;&gt;Node5 -->
<g id="edge4_Node000002_Node000005" class="edge">
<title>Node2&#45;&gt;Node5</title>
<g id="a_edge4_Node000002_Node000005"><a xlink:title=" ">
<path fill="none" stroke="#63b8ff" d="M145.17,-34.59C129.27,-29.94 111.7,-24.8 96.75,-20.42"/>
<polygon fill="#63b8ff" stroke="#63b8ff" points="143.82,-37.84 154.4,-37.29 145.79,-31.12 143.82,-37.84"/>
</a>
</g>
</g>
</g>
</svg>
