<?xml version="1.0" encoding="UTF-8" standalone="no"?>
<!DOCTYPE svg PUBLIC "-//W3C//DTD SVG 1.1//EN"
 "http://www.w3.org/Graphics/SVG/1.1/DTD/svg11.dtd">
<!-- Generated by graphviz version 14.0.0 (20250921.2048)
 -->
<!-- Title: BioFilterLib/src/utils/utils.cpp Pages: 1 -->
<svg width="127pt" height="152pt"
 viewBox="0.00 0.00 127.00 152.00" xmlns="http://www.w3.org/2000/svg" xmlns:xlink="http://www.w3.org/1999/xlink">
<g id="graph0" class="graph" transform="scale(1 1) rotate(0) translate(4 148)">
<title>BioFilterLib/src/utils/utils.cpp</title>
<!-- Node1 -->
<g id="Node000001" class="node">
<title>Node1</title>
<g id="a_Node000001"><a xlink:title=" ">
<polygon fill="#999999" stroke="#666666" points="116,-144 13.75,-144 13.75,-112 116,-112 116,-144"/>
<text xml:space="preserve" text-anchor="start" x="21.75" y="-130.5" font-family="Helvetica,sans-Serif" font-size="10.00">BioFilterLib/src/utils</text>
<text xml:space="preserve" text-anchor="middle" x="64.88" y="-118.5" font-family="Helvetica,sans-Serif" font-size="10.00">/utils.cpp</text>
</a>
</g>
</g>
<!-- Node2 -->
<g id="Node000002" class="node">
<title>Node2</title>
<g id="a_Node000002"><a xlink:href="utils_8h.html" target="_top" xlink:title=" ">
<polygon fill="white" stroke="#666666" points="55,-76 12.75,-76 12.75,-56 55,-56 55,-76"/>
<text xml:space="preserve" text-anchor="middle" x="33.88" y="-62.5" font-family="Helvetica,sans-Serif" font-size="10.00">utils.h</text>
</a>
</g>
</g>
<!-- Node1&#45;&gt;Node2 -->
<g id="edge1_Node000001_Node000002" class="edge">
<title>Node1&#45;&gt;Node2</title>
<g id="a_edge1_Node000001_Node000002"><a xlink:title=" ">
<path fill="none" stroke="#63b8ff" d="M56.89,-111.55C52.95,-103.91 48.14,-94.61 43.94,-86.49"/>
<polygon fill="#63b8ff" stroke="#63b8ff" points="47.13,-85.03 39.43,-77.75 40.91,-88.24 47.13,-85.03"/>
</a>
</g>
</g>
<!-- Node4 -->
<g id="Node000004" class="node">
<title>Node4</title>
<g id="a_Node000004"><a xlink:title=" ">
<polygon fill="#e0e0e0" stroke="#999999" points="118.88,-76 72.88,-76 72.88,-56 118.88,-56 118.88,-76"/>
<text xml:space="preserve" text-anchor="middle" x="95.88" y="-62.5" font-family="Helvetica,sans-Serif" font-size="10.00">math.h</text>
</a>
</g>
</g>
<!-- Node1&#45;&gt;Node4 -->
<g id="edge3_Node000001_Node000004" class="edge">
<title>Node1&#45;&gt;Node4</title>
<g id="a_edge3_Node000001_Node000004"><a xlink:title=" ">
<path fill="none" stroke="#63b8ff" d="M72.86,-111.55C76.8,-103.91 81.61,-94.61 85.81,-86.49"/>
<polygon fill="#63b8ff" stroke="#63b8ff" points="88.84,-88.24 90.32,-77.75 82.62,-85.03 88.84,-88.24"/>
</a>
</g>
</g>
<!-- Node3 -->
<g id="Node000003" class="node">
<title>Node3</title>
<g id="a_Node000003"><a xlink:title=" ">
<polygon fill="#e0e0e0" stroke="#999999" points="67.75,-20 0,-20 0,0 67.75,0 67.75,-20"/>
<text xml:space="preserve" text-anchor="middle" x="33.88" y="-6.5" font-family="Helvetica,sans-Serif" font-size="10.00">arm_math.h</text>
</a>
</g>
</g>
<!-- Node2&#45;&gt;Node3 -->
<g id="edge2_Node000002_Node000003" class="edge">
<title>Node2&#45;&gt;Node3</title>
<g id="a_edge2_Node000002_Node000003"><a xlink:title=" ">
<path fill="none" stroke="#63b8ff" d="M33.88,-55.59C33.88,-49.01 33.88,-39.96 33.88,-31.73"/>
<polygon fill="#63b8ff" stroke="#63b8ff" points="37.38,-31.81 33.88,-21.81 30.38,-31.81 37.38,-31.81"/>
</a>
</g>
</g>
</g>
</svg>
