<?xml version="1.0" encoding="UTF-8" standalone="no"?>
<!DOCTYPE svg PUBLIC "-//W3C//DTD SVG 1.1//EN"
 "http://www.w3.org/Graphics/SVG/1.1/DTD/svg11.dtd">
<!-- Generated by graphviz version 14.0.0 (20250921.2048)
 -->
<!-- Title: BioFilterLib/src/utils/utils_extended.h Pages: 1 -->
<svg width="211pt" height="152pt"
 viewBox="0.00 0.00 211.00 152.00" xmlns="http://www.w3.org/2000/svg" xmlns:xlink="http://www.w3.org/1999/xlink">
<g id="graph0" class="graph" transform="scale(1 1) rotate(0) translate(4 148)">
<title>BioFilterLib/src/utils/utils_extended.h</title>
<!-- Node1 -->
<g id="Node000001" class="node">
<title>Node1</title>
<g id="a_Node000001"><a xlink:title=" ">
<polygon fill="#999999" stroke="#666666" points="136.75,-144 34.5,-144 34.5,-112 136.75,-112 136.75,-144"/>
<text xml:space="preserve" text-anchor="start" x="42.5" y="-130.5" font-family="Helvetica,sans-Serif" font-size="10.00">BioFilterLib/src/utils</text>
<text xml:space="preserve" text-anchor="middle" x="85.62" y="-118.5" font-family="Helvetica,sans-Serif" font-size="10.00">/utils_extended.h</text>
</a>
</g>
</g>
<!-- Node2 -->
<g id="Node000002" class="node">
<title>Node2</title>
<g id="a_Node000002"><a xlink:title=" ">
<polygon fill="#e0e0e0" stroke="#999999" points="57.25,-76 0,-76 0,-56 57.25,-56 57.25,-76"/>
<text xml:space="preserve" text-anchor="middle" x="28.62" y="-62.5" font-family="Helvetica,sans-Serif" font-size="10.00">Arduino.h</text>
</a>
</g>
</g>
<!-- Node1&#45;&gt;Node2 -->
<g id="edge1_Node000001_Node000002" class="edge">
<title>Node1&#45;&gt;Node2</title>
<g id="a_edge1_Node000001_Node000002"><a xlink:title=" ">
<path fill="none" stroke="#63b8ff" d="M70.95,-111.55C63.11,-103.3 53.44,-93.12 45.32,-84.57"/>
<polygon fill="#63b8ff" stroke="#63b8ff" points="48.03,-82.34 38.61,-77.51 42.96,-87.17 48.03,-82.34"/>
</a>
</g>
</g>
<!-- Node3 -->
<g id="Node000003" class="node">
<title>Node3</title>
<g id="a_Node000003"><a xlink:title=" ">
<polygon fill="#e0e0e0" stroke="#999999" points="155.5,-20 87.75,-20 87.75,0 155.5,0 155.5,-20"/>
<text xml:space="preserve" text-anchor="middle" x="121.62" y="-6.5" font-family="Helvetica,sans-Serif" font-size="10.00">arm_math.h</text>
</a>
</g>
</g>
<!-- Node1&#45;&gt;Node3 -->
<g id="edge2_Node000001_Node000003" class="edge">
<title>Node1&#45;&gt;Node3</title>
<g id="a_edge2_Node000001_Node000003"><a xlink:title=" ">
<path fill="none" stroke="#63b8ff" d="M89.27,-111.64C92.81,-97.17 98.53,-74.95 104.62,-56 107.31,-47.66 110.65,-38.6 113.66,-30.8"/>
<polygon fill="#63b8ff" stroke="#63b8ff" points="116.86,-32.21 117.28,-21.62 110.35,-29.64 116.86,-32.21"/>
</a>
</g>
</g>
<!-- Node4 -->
<g id="Node000004" class="node">
<title>Node4</title>
<g id="a_Node000004"><a xlink:href="_f_i_r_filter_8h.html" target="_top" xlink:title="Filtro FIR optimizado para bioseñales usando CMSIS&#45;DSP.">
<polygon fill="white" stroke="#666666" points="203.38,-76 113.88,-76 113.88,-56 203.38,-56 203.38,-76"/>
<text xml:space="preserve" text-anchor="middle" x="158.62" y="-62.5" font-family="Helvetica,sans-Serif" font-size="10.00">filters/FIRFilter.h</text>
</a>
</g>
</g>
<!-- Node1&#45;&gt;Node4 -->
<g id="edge3_Node000001_Node000004" class="edge">
<title>Node1&#45;&gt;Node4</title>
<g id="a_edge3_Node000001_Node000004"><a xlink:title=" ">
<path fill="none" stroke="#63b8ff" d="M104.42,-111.55C114.88,-102.95 127.89,-92.26 138.55,-83.5"/>
<polygon fill="#63b8ff" stroke="#63b8ff" points="140.51,-86.42 146.01,-77.37 136.06,-81.01 140.51,-86.42"/>
</a>
</g>
</g>
<!-- Node4&#45;&gt;Node3 -->
<g id="edge4_Node000004_Node000003" class="edge">
<title>Node4&#45;&gt;Node3</title>
<g id="a_edge4_Node000004_Node000003"><a xlink:title=" ">
<path fill="none" stroke="#63b8ff" d="M152.18,-55.59C147.3,-48.47 140.43,-38.45 134.45,-29.72"/>
<polygon fill="#63b8ff" stroke="#63b8ff" points="137.39,-27.82 128.85,-21.55 131.62,-31.77 137.39,-27.82"/>
</a>
</g>
</g>
</g>
</svg>
